<?xml version="1.0" encoding="UTF-8" standalone="no"?>
<!-- Created with Inkscape (http://www.inkscape.org/) -->

<svg
   xmlns:dc="http://purl.org/dc/elements/1.1/"
   xmlns:cc="http://creativecommons.org/ns#"
   xmlns:rdf="http://www.w3.org/1999/02/22-rdf-syntax-ns#"
   xmlns:svg="http://www.w3.org/2000/svg"
   xmlns="http://www.w3.org/2000/svg"
   xmlns:sodipodi="http://sodipodi.sourceforge.net/DTD/sodipodi-0.dtd"
   xmlns:inkscape="http://www.inkscape.org/namespaces/inkscape"
   width="300.60001"
   height="298.79095"
   id="svg3216"
   version="1.1"
   inkscape:version="0.48.3.1 r9886"
   sodipodi:docname="Merlin2525 Paid Business Stamp 2.svg">
  <title
     id="title3279">Merlin2525 Paid Business Stamp 1. svg</title>
  <defs
     id="defs3218" />
  <sodipodi:namedview
     id="base"
     pagecolor="#ffffff"
     bordercolor="#666666"
     borderopacity="1.0"
     inkscape:pageopacity="0.0"
     inkscape:pageshadow="2"
     inkscape:zoom="1.8083333"
     inkscape:cx="47.96198"
     inkscape:cy="171.21447"
     inkscape:document-units="px"
     inkscape:current-layer="layer1"
     showgrid="false"
     showborder="false"
     inkscape:showpageshadow="false"
     fit-margin-left="0.3"
     fit-margin-top="0.3"
     fit-margin-right="0.3"
     fit-margin-bottom="0.3"
     inkscape:window-width="815"
     inkscape:window-height="998"
     inkscape:window-x="865"
     inkscape:window-y="24"
     inkscape:window-maximized="0" />
  <metadata
     id="metadata3221">
    <rdf:RDF>
      <cc:Work
         rdf:about="">
        <dc:format>image/svg+xml</dc:format>
        <dc:type
           rdf:resource="http://purl.org/dc/dcmitype/StillImage" />
        <dc:title>Merlin2525 Paid Business Stamp 1. svg</dc:title>
        <cc:license
           rdf:resource="http://creativecommons.org/licenses/publicdomain/" />
        <dc:date>Sept 02, 2012</dc:date>
        <dc:creator>
          <cc:Agent>
            <dc:title>http://openclipart.org/user-detail/Merlin2525</dc:title>
          </cc:Agent>
        </dc:creator>
        <dc:rights>
          <cc:Agent>
            <dc:title>Released to the Public Domain by Merlin2525</dc:title>
          </cc:Agent>
        </dc:rights>
        <dc:language>en-CA</dc:language>
        <dc:subject>
          <rdf:Bag>
            <rdf:li>paid</rdf:li>
            <rdf:li>business</rdf:li>
            <rdf:li>stamp</rdf:li>
            <rdf:li>watermark</rdf:li>
          </rdf:Bag>
        </dc:subject>
      </cc:Work>
      <cc:License
         rdf:about="http://creativecommons.org/licenses/publicdomain/">
        <cc:permits
           rdf:resource="http://creativecommons.org/ns#Reproduction" />
        <cc:permits
           rdf:resource="http://creativecommons.org/ns#Distribution" />
        <cc:permits
           rdf:resource="http://creativecommons.org/ns#DerivativeWorks" />
      </cc:License>
    </rdf:RDF>
  </metadata>
  <g
     inkscape:label="Layer 1"
     inkscape:groupmode="layer"
     id="layer1"
     transform="translate(-310.54182,-390.73584)">
    <g
       id="g3666"
       transform="matrix(0.74642565,-0.7323577,0.7323577,0.74642565,283.66262,580.44849)"
       style="fill:#339900;stroke:#339900">
      <path
         style="fill:#339900;fill-opacity:1;stroke:#339900;stroke-width:0.60000002;stroke-linecap:round;stroke-linejoin:round;stroke-miterlimit:4;stroke-opacity:0.55707762;stroke-dasharray:none;stroke-dashoffset:0"
         d="m 24.78873,18.283618 c -7.756,0 -14,6.244 -14,14 l 0,117.718752 c 0,7.756 6.244,14 14,14 l 246.3125,0 c 7.756,0 14,-6.244 14,-14 l 0,-117.718752 c 0,-7.756 -6.244,-14 -14,-14 l -246.3125,0 z m 5.09375,5.9375 236.125,0 c 6.648,0 12,5.352 12,12 l 0,109.875002 c 0,6.648 -5.352,12 -12,12 l -236.125,0 c -6.648,0 -12,-5.352 -12,-12 l 0,-109.875002 c 0,-6.648 5.352,-12 12,-12 z"
         id="path3040"
         inkscape:connector-curvature="0" />
      <g
         id="text3042"
         style="font-size:48px;font-style:normal;font-variant:normal;font-weight:bold;font-stretch:normal;line-height:125%;letter-spacing:0px;word-spacing:0px;fill:#339900;fill-opacity:1;stroke:#339900;font-family:Ubuntu;-inkscape-font-specification:Ubuntu Bold">
        <path
           id="path3519"
           d="m 85.704737,74.102992 c 4.959982,3.3e-5 8.767978,0.880033 11.424,2.64 2.655972,1.728029 3.983973,4.576026 3.984003,8.544 -3e-5,4.000018 -1.344031,6.896015 -4.032003,8.688 -2.688022,1.760012 -6.528018,2.640011 -11.52,2.64 l -2.352,0 0,11.135998 -7.488,0 0,-32.783998 c 1.631995,-0.319967 3.359993,-0.543967 5.184,-0.672 1.823989,-0.127967 3.423988,-0.191967 4.8,-0.192 m 0.48,6.384 c -0.544013,2.7e-5 -1.088013,0.01603 -1.632,0.048 -0.512012,0.03203 -0.960011,0.06403 -1.344,0.096 l 0,9.6 2.352,0 c 2.591984,1.7e-5 4.543982,-0.351982 5.856,-1.056 1.311979,-0.703981 1.967979,-2.01598 1.968,-3.936 -2.1e-5,-0.927977 -0.176021,-1.695976 -0.528,-2.304 -0.32002,-0.607975 -0.80002,-1.087974 -1.44,-1.44 -0.608019,-0.383974 -1.360018,-0.639973 -2.256,-0.768 -0.896016,-0.159973 -1.888015,-0.239973 -2.976,-0.24"
           inkscape:connector-curvature="0"
           style="fill:#339900;stroke:#339900" />
        <path
           id="path3521"
           d="m 140.46149,107.75099 c -0.35203,-1.152 -0.75203,-2.336 -1.2,-3.552 -0.41603,-1.21599 -0.83203,-2.43199 -1.248,-3.648 l -12.96,0 c -0.41601,1.21601 -0.84801,2.43201 -1.296,3.648 -0.41601,1.216 -0.80001,2.4 -1.152,3.552 l -7.776,0 c 1.248,-3.58399 2.43199,-6.89599 3.552,-9.935998 1.11999,-3.039987 2.20799,-5.903984 3.264,-8.592 1.08799,-2.687979 2.14399,-5.231976 3.168,-7.632 1.05599,-2.431972 2.14398,-4.799969 3.264,-7.104 l 7.152,0 c 1.08798,2.304031 2.15997,4.672028 3.216,7.104 1.05597,2.400024 2.11197,4.944021 3.168,7.632 1.08797,2.688016 2.19197,5.552013 3.312,8.592 1.11997,3.040008 2.30396,6.352008 3.552,9.935998 l -8.016,0 m -8.976,-25.727998 c -0.16002,0.480025 -0.40002,1.136024 -0.72,1.968 -0.32002,0.832023 -0.68802,1.792022 -1.104,2.88 -0.41602,1.08802 -0.88002,2.288018 -1.392,3.6 -0.48002,1.312016 -0.97602,2.688014 -1.488,4.128 l 9.456,0 c -0.51202,-1.439986 -1.00802,-2.815984 -1.488,-4.128 -0.48002,-1.311982 -0.94402,-2.51198 -1.392,-3.6 -0.41602,-1.087978 -0.78402,-2.047977 -1.104,-2.88 -0.32002,-0.831976 -0.57602,-1.487975 -0.768,-1.968"
           inkscape:connector-curvature="0"
           style="fill:#339900;stroke:#339900" />
        <path
           id="path3523"
           d="m 164.31449,74.486992 7.488,0 0,33.263998 -7.488,0 0,-33.263998"
           inkscape:connector-curvature="0"
           style="fill:#339900;stroke:#339900" />
        <path
           id="path3525"
           d="m 198.52124,101.65499 c 0.35199,0.032 0.75199,0.064 1.2,0.096 0.47998,1e-5 1.03998,1e-5 1.68,0 3.74398,1e-5 6.51198,-0.94399 8.304,-2.831998 1.82397,-1.887989 2.73597,-4.495987 2.736,-7.824 -3e-5,-3.48798 -0.86403,-6.127977 -2.592,-7.92 -1.72802,-1.791974 -4.46402,-2.687973 -8.208,-2.688 -0.51202,2.7e-5 -1.04002,0.01603 -1.584,0.048 -0.54402,2.7e-5 -1.05601,0.03203 -1.536,0.096 l 0,21.023998 m 21.648,-10.559998 c -4e-5,2.880014 -0.44804,5.392011 -1.344,7.536 -0.89603,2.144008 -2.17603,3.920008 -3.84,5.327998 -1.63203,1.408 -3.63203,2.464 -6,3.168 -2.36802,0.704 -5.02402,1.056 -7.968,1.056 -1.34402,0 -2.91201,-0.064 -4.704,-0.192 -1.79201,-0.096 -3.55201,-0.32 -5.28,-0.672 l 0,-32.399998 c 1.72799,-0.319967 3.51999,-0.527967 5.376,-0.624 1.88799,-0.127967 3.50398,-0.191967 4.848,-0.192 2.84798,3.3e-5 5.42398,0.320033 7.728,0.96 2.33597,0.640032 4.33597,1.648031 6,3.024 1.66397,1.376028 2.94397,3.136026 3.84,5.28 0.89596,2.144022 1.34396,4.720019 1.344,7.728"
           inkscape:connector-curvature="0"
           style="fill:#339900;stroke:#339900" />
      </g>
    </g>
  </g>
</svg>
