<?xml version="1.0" encoding="UTF-8"?> <svg xmlns="http://www.w3.org/2000/svg" xmlns:xlink="http://www.w3.org/1999/xlink" id="svg" version="1.1" width="400" height="80" viewBox="0, 0, 400,80"><g id="svgg"><path id="path0" d="M20.432 13.641 C 20.365 13.750,20.248 13.800,20.173 13.754 C 19.287 13.206,15.333 17.892,15.333 19.488 C 15.333 19.586,15.277 19.667,15.208 19.667 C 14.875 19.670,14.852 24.558,15.184 24.833 C 15.239 24.879,15.443 25.379,15.637 25.944 C 16.527 28.537,18.033 30.342,20.417 31.672 C 20.967 31.979,21.437 32.278,21.462 32.336 C 21.488 32.394,21.731 32.408,22.004 32.368 C 22.277 32.328,22.500 32.369,22.500 32.458 C 22.500 32.547,22.679 32.586,22.897 32.545 C 23.116 32.503,23.345 32.551,23.407 32.651 C 23.548 32.879,24.667 32.893,24.667 32.667 C 24.667 32.575,24.842 32.500,25.056 32.500 C 25.661 32.500,25.660 32.473,24.916 29.830 C 24.486 28.303,24.285 27.332,24.398 27.331 C 24.524 27.329,24.528 27.289,24.409 27.206 C 24.253 27.097,23.893 26.076,23.753 25.347 C 23.725 25.201,23.610 24.745,23.498 24.333 C 23.386 23.921,23.272 23.471,23.243 23.333 C 23.215 23.196,23.181 23.083,23.167 23.083 C 23.153 23.083,23.118 22.971,23.090 22.833 C 23.062 22.696,22.872 22.039,22.669 21.373 C 22.466 20.707,22.340 20.055,22.390 19.925 C 22.440 19.795,22.418 19.665,22.341 19.636 C 22.060 19.531,21.681 17.886,21.890 17.674 C 22.037 17.523,22.026 17.489,21.841 17.530 C 21.708 17.559,21.589 17.508,21.578 17.417 C 21.567 17.325,21.492 16.950,21.411 16.583 C 21.206 15.646,21.212 15.671,21.175 15.625 C 21.157 15.602,21.111 15.433,21.072 15.250 C 20.871 14.289,20.543 13.463,20.432 13.641 M9.345 28.170 C 8.972 28.746,8.667 29.352,8.667 29.516 C 8.667 29.680,8.587 29.863,8.489 29.924 C 8.391 29.984,8.351 30.139,8.400 30.267 C 8.449 30.395,8.419 30.500,8.333 30.500 C 8.247 30.500,8.221 30.613,8.274 30.752 C 8.327 30.891,8.299 31.097,8.212 31.210 C 8.033 31.444,8.054 33.267,8.240 33.700 C 8.308 33.856,8.318 34.057,8.262 34.147 C 8.207 34.237,8.228 34.352,8.310 34.402 C 8.391 34.453,8.469 34.683,8.483 34.914 C 8.528 35.700,8.556 35.833,8.672 35.833 C 8.736 35.833,8.912 36.157,9.063 36.553 C 9.722 38.280,12.016 40.706,13.923 41.695 C 14.501 41.995,14.950 42.280,14.920 42.328 C 14.890 42.377,15.064 42.423,15.308 42.430 C 15.551 42.438,16.197 42.569,16.743 42.722 C 18.443 43.198,20.717 42.944,22.161 42.117 C 22.485 41.931,22.949 41.677,23.192 41.552 C 24.021 41.127,23.915 40.997,17.737 34.820 C 14.337 31.421,11.688 28.644,11.710 28.503 C 11.732 28.361,11.647 28.272,11.516 28.300 C 11.387 28.328,10.998 28.074,10.652 27.736 L 10.022 27.121 9.345 28.170 M7.670 44.658 C 7.545 44.959,7.505 45.492,7.565 46.033 C 7.619 46.519,7.683 47.160,7.707 47.458 C 7.731 47.756,7.800 48.000,7.861 48.000 C 7.922 48.000,8.103 48.342,8.263 48.760 C 8.795 50.154,9.949 51.630,11.250 52.579 C 11.617 52.847,11.954 53.110,12.000 53.165 C 12.161 53.357,14.341 54.328,14.793 54.410 C 15.648 54.564,16.250 54.706,16.380 54.783 C 16.625 54.927,19.667 54.917,19.667 54.772 C 19.667 54.693,19.817 54.667,20.000 54.715 C 20.183 54.763,20.333 54.742,20.333 54.670 C 20.333 54.597,20.615 54.485,20.958 54.421 C 22.512 54.132,24.528 52.628,26.216 50.497 C 26.732 49.847,26.546 49.191,25.792 48.998 C 25.402 48.898,24.971 48.772,24.833 48.717 C 24.442 48.560,24.115 48.489,23.708 48.473 C 23.480 48.464,23.332 48.352,23.331 48.188 C 23.329 47.997,23.290 47.977,23.200 48.118 C 23.102 48.272,22.848 48.250,22.116 48.024 C 21.591 47.861,21.207 47.682,21.264 47.625 C 21.320 47.569,21.219 47.561,21.039 47.608 C 20.762 47.680,18.846 47.222,18.000 46.881 C 17.862 46.826,17.700 46.790,17.638 46.802 C 17.577 46.815,17.108 46.681,16.597 46.505 C 16.085 46.329,15.667 46.227,15.667 46.279 C 15.667 46.332,15.566 46.291,15.443 46.189 C 15.320 46.086,15.182 46.040,15.137 46.086 C 15.018 46.204,13.940 45.813,13.794 45.598 C 13.710 45.472,13.671 45.478,13.669 45.617 C 13.667 45.767,13.467 45.755,12.875 45.572 C 12.440 45.437,11.728 45.247,11.293 45.150 C 10.859 45.052,10.460 44.903,10.407 44.817 C 10.354 44.731,10.249 44.699,10.175 44.745 C 10.100 44.791,9.606 44.680,9.077 44.498 C 7.863 44.080,7.912 44.075,7.670 44.658 " stroke="none" fill="#c0c01a" fill-rule="evenodd"></path><path id="path1" d="M64.635 25.087 C 64.585 25.137,63.802 25.199,62.897 25.224 C 59.616 25.315,56.787 26.893,55.293 29.464 C 54.570 30.708,54.769 30.913,57.208 31.432 C 57.277 31.446,57.352 31.474,57.375 31.493 C 57.398 31.512,57.567 31.547,57.750 31.571 C 57.933 31.594,58.496 31.735,59.000 31.884 C 59.504 32.032,60.667 32.350,61.583 32.590 C 62.500 32.830,63.594 33.135,64.014 33.268 C 64.435 33.400,64.960 33.543,65.181 33.585 C 65.985 33.738,67.775 34.199,68.833 34.525 C 69.429 34.709,70.104 34.895,70.333 34.939 C 70.563 34.983,71.258 35.172,71.878 35.360 C 73.044 35.712,73.993 35.674,73.723 35.285 C 73.646 35.174,73.583 34.465,73.583 33.708 C 73.583 32.952,73.542 32.334,73.491 32.333 C 73.441 32.333,73.271 31.977,73.114 31.542 C 72.153 28.868,69.278 26.431,66.083 25.581 C 65.442 25.410,64.874 25.209,64.822 25.133 C 64.770 25.057,64.686 25.036,64.635 25.087 M60.741 37.338 C 59.392 37.723,57.501 38.694,57.500 39.001 C 57.500 39.047,60.578 42.160,64.339 45.917 L 71.178 52.750 71.517 52.333 C 76.549 46.156,68.597 35.091,60.741 37.338 M56.917 47.333 C 56.860 47.425,56.593 47.500,56.323 47.500 C 55.740 47.500,55.717 47.667,56.103 49.090 C 56.251 49.636,56.430 50.346,56.500 50.667 C 56.570 50.987,57.058 52.788,57.584 54.667 C 58.111 56.546,58.563 58.233,58.588 58.417 C 58.633 58.731,58.818 59.424,59.768 62.833 C 59.986 63.612,60.290 64.710,60.445 65.273 L 60.726 66.295 61.238 66.120 C 63.484 65.350,66.167 61.731,66.167 59.472 C 66.167 59.304,66.257 59.167,66.367 59.167 C 66.522 59.167,66.522 59.122,66.367 58.967 C 66.115 58.715,66.103 56.893,66.351 56.739 C 66.482 56.658,66.475 56.588,66.327 56.496 C 66.213 56.426,66.111 56.060,66.101 55.684 C 66.091 55.308,66.033 55.001,65.972 55.000 C 65.910 55.000,65.808 54.756,65.745 54.458 C 65.142 51.612,61.985 48.426,59.083 47.734 C 58.442 47.581,57.786 47.391,57.627 47.311 C 57.249 47.122,57.043 47.129,56.917 47.333 " stroke="none" fill="#ec4d1d" fill-rule="evenodd"></path><path id="path2" d="M47.792 7.284 C 47.998 7.324,48.335 7.324,48.542 7.284 C 48.748 7.245,48.579 7.212,48.167 7.212 C 47.754 7.212,47.585 7.245,47.792 7.284 M27.680 10.475 C 27.408 10.983,27.464 11.125,27.767 10.693 C 27.914 10.483,27.995 10.273,27.947 10.225 C 27.899 10.177,27.779 10.290,27.680 10.475 M17.342 15.255 C 17.118 15.476,16.973 15.696,17.021 15.743 C 17.069 15.791,17.322 15.606,17.585 15.332 C 18.151 14.741,17.934 14.673,17.342 15.255 M50.648 17.042 C 50.453 17.415,50.453 17.415,50.809 17.099 C 51.206 16.746,51.243 16.667,51.006 16.667 C 50.917 16.667,50.757 16.835,50.648 17.042 M15.756 17.431 C 15.600 17.668,15.502 17.891,15.537 17.926 C 15.572 17.961,15.732 17.767,15.893 17.495 C 16.252 16.887,16.145 16.837,15.756 17.431 M66.008 17.623 C 66.220 17.920,66.432 18.124,66.479 18.076 C 66.527 18.029,66.354 17.786,66.094 17.537 L 65.623 17.083 66.008 17.623 M89.333 20.167 L 89.333 23.000 92.583 23.000 L 95.833 23.000 95.833 20.167 L 95.833 17.333 92.583 17.333 L 89.333 17.333 89.333 20.167 M211.500 20.167 L 211.500 23.000 214.750 23.000 L 218.000 23.000 218.000 20.167 L 218.000 17.333 214.750 17.333 L 211.500 17.333 211.500 20.167 M305.333 20.167 L 305.333 23.000 308.667 23.000 L 312.000 23.000 312.000 20.167 L 312.000 17.333 308.667 17.333 L 305.333 17.333 305.333 20.167 M49.333 18.500 C 49.138 18.775,49.015 19.000,49.061 19.000 C 49.106 19.000,49.304 18.775,49.500 18.500 C 49.696 18.225,49.819 18.000,49.773 18.000 C 49.727 18.000,49.529 18.225,49.333 18.500 M286.333 23.417 L 286.333 26.833 283.917 26.833 L 281.500 26.833 281.500 29.333 L 281.500 31.833 283.917 31.833 L 286.333 31.833 286.333 39.492 C 286.333 44.404,286.399 47.467,286.516 48.033 C 286.981 50.277,288.099 52.500,288.762 52.500 C 288.893 52.500,289.000 52.575,289.000 52.667 C 289.000 52.758,289.106 52.833,289.236 52.833 C 289.366 52.833,289.858 53.027,290.330 53.264 C 291.828 54.016,298.005 54.223,301.292 53.630 L 302.333 53.442 302.333 50.814 C 302.333 47.769,302.443 47.936,300.647 48.259 C 297.769 48.776,295.546 48.763,294.508 48.223 C 292.859 47.365,292.924 47.726,292.868 39.208 L 292.820 31.833 297.577 31.833 L 302.333 31.833 302.333 29.333 L 302.333 26.833 297.583 26.833 L 292.833 26.833 292.833 23.417 L 292.833 20.000 289.583 20.000 L 286.333 20.000 286.333 23.417 M47.709 23.417 C 47.711 23.783,47.745 23.914,47.785 23.706 C 47.824 23.499,47.823 23.199,47.781 23.040 C 47.739 22.880,47.707 23.050,47.709 23.417 M29.925 25.514 C 30.040 25.699,31.007 26.216,31.087 26.135 C 31.118 26.104,30.848 25.917,30.486 25.719 C 30.125 25.521,29.873 25.429,29.925 25.514 M113.583 26.672 C 112.758 26.858,111.708 27.083,111.250 27.171 C 109.877 27.437,109.138 27.621,108.041 27.971 L 106.999 28.303 106.923 27.943 C 106.881 27.745,106.824 27.433,106.796 27.250 C 106.748 26.933,106.600 26.914,103.790 26.871 L 100.833 26.826 100.833 40.246 L 100.833 53.667 104.167 53.667 L 107.500 53.667 107.500 43.430 L 107.500 33.193 108.125 33.006 C 111.167 32.099,112.175 31.937,114.833 31.933 C 117.695 31.929,118.432 32.155,119.195 33.274 C 119.921 34.338,119.914 34.239,120.000 44.083 L 120.083 53.583 123.292 53.629 L 126.500 53.674 126.500 43.501 L 126.500 33.328 127.042 33.097 C 127.340 32.969,127.883 32.788,128.250 32.693 C 128.617 32.599,129.404 32.392,130.000 32.233 C 130.789 32.024,131.786 31.941,133.667 31.931 C 136.906 31.913,137.536 32.167,138.500 33.880 L 139.083 34.917 139.135 44.292 L 139.187 53.667 142.427 53.667 L 145.667 53.667 145.664 44.708 C 145.661 36.143,145.549 33.236,145.197 32.559 C 145.108 32.389,144.911 31.817,144.758 31.287 C 144.601 30.743,144.339 30.236,144.157 30.122 C 143.979 30.011,143.833 29.836,143.833 29.734 C 143.833 29.479,141.667 27.500,141.387 27.500 C 141.264 27.500,141.032 27.435,140.873 27.356 C 138.712 26.278,134.814 26.059,131.250 26.814 C 127.492 27.611,125.831 28.050,124.972 28.475 C 124.353 28.782,124.343 28.781,124.013 28.434 C 122.384 26.721,117.233 25.851,113.583 26.672 M159.083 26.571 C 156.057 26.971,154.429 27.217,153.500 27.415 L 152.583 27.609 152.537 30.083 C 152.484 32.943,152.470 32.913,153.769 32.678 C 156.866 32.117,158.075 31.985,160.928 31.894 C 165.133 31.760,167.404 32.123,167.846 33.000 C 168.345 33.988,168.817 35.488,168.829 36.125 C 168.832 36.279,168.365 36.334,167.042 36.335 C 160.752 36.340,153.701 37.460,152.427 38.657 C 152.226 38.846,152.003 39.000,151.931 39.000 C 151.859 39.000,151.443 39.365,151.007 39.811 C 148.591 42.277,148.659 48.795,151.129 51.528 C 153.241 53.866,160.055 54.771,164.713 53.333 C 165.314 53.147,166.131 52.928,166.528 52.846 C 166.925 52.765,167.636 52.591,168.107 52.461 L 168.965 52.225 169.108 52.904 L 169.251 53.583 172.356 53.629 L 175.460 53.674 175.396 45.629 C 175.295 33.069,175.083 31.607,172.994 29.076 C 171.182 26.880,165.067 25.779,159.083 26.571 M188.667 26.435 C 184.692 27.184,181.667 28.559,181.667 29.616 C 181.667 29.714,181.498 29.906,181.292 30.041 C 180.870 30.317,180.145 31.826,179.830 33.083 C 179.715 33.542,179.509 34.292,179.372 34.750 C 178.789 36.699,178.932 42.925,179.601 44.712 C 179.746 45.100,179.900 45.642,179.944 45.917 C 180.145 47.202,181.716 49.341,183.005 50.088 C 186.809 52.290,192.258 52.728,197.583 51.259 C 198.042 51.133,198.735 50.958,199.125 50.871 L 199.833 50.713 199.833 51.619 C 199.833 53.850,198.553 56.078,196.850 56.810 C 194.989 57.610,188.391 57.492,184.920 56.596 C 182.269 55.911,182.500 55.691,182.500 58.900 L 182.500 61.633 183.292 61.806 C 186.818 62.575,195.229 62.892,197.750 62.350 C 198.300 62.231,199.017 62.080,199.343 62.012 C 200.182 61.839,202.356 60.776,202.734 60.354 C 202.909 60.159,203.127 60.000,203.219 60.000 C 203.480 60.000,204.485 58.815,204.774 58.167 C 204.917 57.846,205.102 57.433,205.186 57.250 C 205.416 56.743,205.814 55.226,206.082 53.833 C 206.277 52.814,206.323 50.209,206.328 39.708 L 206.333 26.833 203.329 26.833 L 200.325 26.833 200.226 27.331 C 200.171 27.604,200.066 27.791,199.993 27.745 C 199.919 27.700,199.497 27.590,199.055 27.501 C 198.612 27.412,197.387 27.148,196.333 26.914 C 194.470 26.500,189.851 26.212,188.667 26.435 M237.000 26.432 C 236.771 26.473,235.871 26.656,235.000 26.839 C 234.129 27.022,233.004 27.254,232.500 27.355 C 231.996 27.456,231.246 27.637,230.833 27.757 C 229.093 28.266,229.058 28.261,228.937 27.508 L 228.829 26.833 225.915 26.833 L 223.000 26.833 223.000 40.250 L 223.000 53.667 226.333 53.667 L 229.667 53.667 229.667 43.437 L 229.667 33.207 230.125 33.038 C 234.656 31.369,240.565 31.565,241.569 33.417 C 241.669 33.600,241.798 33.787,241.856 33.833 C 242.454 34.302,242.500 35.043,242.503 44.229 C 242.504 49.190,242.566 53.345,242.640 53.462 C 242.743 53.624,243.533 53.663,246.012 53.629 L 249.250 53.583 249.303 45.000 C 249.374 33.423,249.030 31.410,246.537 28.819 C 244.804 27.017,240.196 25.863,237.000 26.432 M264.000 26.446 C 261.652 26.686,257.721 27.984,257.300 28.658 C 257.183 28.846,257.011 29.001,256.918 29.003 C 256.476 29.010,254.500 31.507,254.500 32.060 C 254.500 32.188,254.400 32.375,254.278 32.477 C 254.041 32.674,253.671 33.749,253.239 35.500 C 252.899 36.879,252.731 41.971,252.972 43.583 C 253.769 48.902,255.422 51.368,259.142 52.786 C 261.912 53.842,262.180 53.877,267.417 53.883 C 272.292 53.889,272.514 53.870,276.083 53.151 C 277.000 52.967,278.012 52.763,278.333 52.699 L 278.917 52.583 278.963 49.936 L 279.009 47.289 278.296 47.394 C 277.904 47.452,276.908 47.612,276.083 47.751 C 270.017 48.768,267.088 48.898,264.417 48.267 C 262.924 47.915,261.000 47.118,261.000 46.851 C 261.000 46.796,260.810 46.530,260.578 46.260 C 260.347 45.991,260.114 45.578,260.061 45.344 C 260.008 45.109,259.860 44.543,259.730 44.087 C 259.601 43.630,259.448 42.749,259.390 42.128 L 259.285 41.000 269.643 41.000 L 280.000 41.000 280.000 38.534 C 280.000 29.546,274.479 25.375,264.000 26.446 M330.083 26.592 C 327.811 27.024,324.597 27.796,323.135 28.260 C 322.874 28.343,322.833 28.254,322.833 27.595 L 322.833 26.833 319.917 26.833 L 317.000 26.833 317.000 40.250 L 317.000 53.667 320.250 53.667 L 323.500 53.667 323.500 43.497 L 323.500 33.328 324.042 33.097 C 324.340 32.969,324.883 32.789,325.250 32.695 C 328.136 31.955,328.293 31.934,330.833 31.925 C 334.289 31.914,334.871 32.193,335.687 34.250 L 336.083 35.250 336.132 44.458 L 336.180 53.667 339.423 53.667 L 342.667 53.667 342.667 43.430 L 342.667 33.193 343.208 33.015 C 347.331 31.668,351.553 31.475,353.356 32.553 C 355.192 33.650,355.313 34.431,355.325 45.292 L 355.333 53.667 358.667 53.667 L 362.000 53.667 361.997 44.958 C 361.993 34.186,361.835 32.898,360.174 30.015 C 358.334 26.822,353.089 25.593,346.917 26.910 C 345.725 27.164,344.450 27.433,344.083 27.508 C 343.717 27.583,342.854 27.843,342.167 28.085 C 341.479 28.327,340.789 28.564,340.633 28.613 C 340.459 28.667,340.064 28.468,339.615 28.101 C 339.212 27.770,338.774 27.500,338.641 27.500 C 338.509 27.500,338.329 27.440,338.242 27.367 C 337.220 26.511,332.741 26.085,330.083 26.592 M376.667 26.448 C 374.491 26.678,370.825 27.822,370.083 28.502 C 367.846 30.554,366.533 32.497,366.154 34.318 C 366.086 34.647,365.907 35.517,365.756 36.250 C 365.564 37.181,365.482 38.438,365.482 40.417 C 365.482 43.132,365.525 43.518,366.170 46.583 C 366.873 49.926,369.472 52.213,374.083 53.545 C 376.182 54.152,384.276 54.049,387.583 53.374 C 388.958 53.094,390.402 52.813,390.792 52.751 L 391.500 52.637 391.500 49.971 L 391.500 47.304 390.792 47.407 C 390.402 47.463,389.483 47.616,388.750 47.747 C 379.356 49.419,373.836 48.595,372.717 45.351 C 372.348 44.284,372.000 42.538,372.000 41.759 L 372.000 41.000 382.359 41.000 L 392.718 41.000 392.614 38.292 C 392.498 35.299,392.151 33.517,391.431 32.229 C 391.194 31.805,391.000 31.356,391.000 31.232 C 391.000 30.509,387.824 27.897,386.421 27.468 C 383.145 26.464,379.814 26.116,376.667 26.448 M89.333 40.250 L 89.333 53.667 92.583 53.667 L 95.833 53.667 95.833 40.250 L 95.833 26.833 92.583 26.833 L 89.333 26.833 89.333 40.250 M211.500 40.250 L 211.500 53.667 214.750 53.667 L 218.000 53.667 218.000 40.250 L 218.000 26.833 214.750 26.833 L 211.500 26.833 211.500 40.250 M305.333 40.250 L 305.333 53.667 308.667 53.667 L 312.000 53.667 312.000 40.250 L 312.000 26.833 308.667 26.833 L 305.333 26.833 305.333 40.250 M56.167 27.583 C 56.049 27.725,55.990 27.879,56.036 27.925 C 56.082 27.971,56.216 27.892,56.333 27.750 C 56.451 27.608,56.510 27.454,56.464 27.409 C 56.418 27.363,56.284 27.441,56.167 27.583 M9.083 28.000 C 8.941 28.275,8.862 28.500,8.908 28.500 C 8.954 28.500,9.108 28.275,9.250 28.000 C 9.392 27.725,9.471 27.500,9.425 27.500 C 9.379 27.500,9.226 27.725,9.083 28.000 M71.451 28.411 C 71.615 28.638,71.819 28.825,71.904 28.828 C 71.989 28.831,71.882 28.646,71.667 28.417 C 71.167 27.885,71.065 27.882,71.451 28.411 M17.847 30.181 C 18.038 30.372,18.229 30.493,18.272 30.450 C 18.373 30.350,17.856 29.833,17.655 29.833 C 17.570 29.833,17.656 29.990,17.847 30.181 M270.000 31.750 C 272.065 32.383,273.500 34.056,273.500 35.829 L 273.500 36.500 266.519 36.500 L 259.538 36.500 259.848 35.318 C 260.701 32.071,265.522 30.376,270.000 31.750 M381.594 31.513 C 384.286 32.001,386.167 33.771,386.167 35.816 L 386.167 36.500 379.149 36.500 C 373.134 36.500,372.144 36.466,372.222 36.262 C 372.273 36.131,372.364 35.755,372.426 35.427 C 372.487 35.098,372.604 34.789,372.686 34.738 C 372.767 34.688,372.833 34.535,372.833 34.397 C 372.833 32.444,377.768 30.819,381.594 31.513 M7.875 32.417 C 7.877 32.783,7.911 32.914,7.951 32.706 C 7.991 32.499,7.990 32.199,7.948 32.040 C 7.906 31.880,7.874 32.050,7.875 32.417 M197.340 32.249 C 198.024 32.401,198.865 32.597,199.208 32.685 L 199.833 32.847 199.833 39.416 L 199.833 45.985 199.208 46.089 C 198.865 46.146,197.796 46.356,196.833 46.555 C 194.293 47.080,190.599 47.073,189.437 46.540 C 188.990 46.335,188.530 46.167,188.415 46.167 C 188.300 46.167,187.866 45.848,187.450 45.458 C 184.277 42.486,185.056 33.559,188.592 32.361 C 190.314 31.777,194.939 31.719,197.340 32.249 M62.292 36.951 C 62.498 36.991,62.835 36.991,63.042 36.951 C 63.248 36.911,63.079 36.879,62.667 36.879 C 62.254 36.879,62.085 36.911,62.292 36.951 M58.917 41.000 C 59.368 41.458,59.775 41.833,59.821 41.833 C 59.867 41.833,59.535 41.458,59.083 41.000 C 58.632 40.542,58.225 40.167,58.179 40.167 C 58.133 40.167,58.465 40.542,58.917 41.000 M168.833 44.057 L 168.833 47.447 167.875 47.722 C 160.627 49.799,156.550 49.185,155.816 45.906 C 155.014 42.322,158.161 40.768,166.375 40.690 L 168.833 40.667 168.833 44.057 M18.211 43.120 C 18.464 43.158,18.839 43.157,19.044 43.117 C 19.249 43.078,19.042 43.046,18.583 43.048 C 18.125 43.049,17.957 43.081,18.211 43.120 M63.500 45.583 C 63.998 46.087,64.443 46.500,64.489 46.500 C 64.534 46.500,64.165 46.087,63.667 45.583 C 63.169 45.079,62.724 44.667,62.678 44.667 C 62.632 44.667,63.002 45.079,63.500 45.583 M68.917 51.000 C 69.368 51.458,69.775 51.833,69.821 51.833 C 69.867 51.833,69.535 51.458,69.083 51.000 C 68.632 50.542,68.225 50.167,68.179 50.167 C 68.133 50.167,68.465 50.542,68.917 51.000 M52.500 55.242 C 52.500 55.349,53.699 56.500,53.809 56.500 C 53.860 56.500,53.608 56.200,53.250 55.833 C 52.611 55.179,52.500 55.091,52.500 55.242 M34.457 63.464 C 27.305 70.622,27.241 70.696,27.875 71.003 C 28.236 71.178,28.238 71.176,27.924 70.924 C 27.529 70.608,41.131 56.660,41.708 56.790 C 41.869 56.826,42.000 56.776,42.000 56.678 C 42.000 56.046,40.692 57.223,34.457 63.464 M55.550 62.667 C 55.550 63.171,55.581 63.377,55.619 63.125 C 55.658 62.873,55.658 62.460,55.619 62.208 C 55.581 61.956,55.550 62.163,55.550 62.667 M15.831 63.248 C 16.141 63.567,16.420 63.802,16.452 63.770 C 16.534 63.688,15.561 62.667,15.400 62.667 C 15.328 62.667,15.521 62.928,15.831 63.248 M40.415 69.502 C 40.152 69.776,40.014 70.000,40.106 70.000 C 40.321 70.000,41.085 69.196,40.975 69.086 C 40.929 69.040,40.678 69.228,40.415 69.502 M32.792 72.784 C 32.998 72.824,33.335 72.824,33.542 72.784 C 33.748 72.745,33.579 72.712,33.167 72.712 C 32.754 72.712,32.585 72.745,32.792 72.784 " stroke="none" fill="#8c8c8c" fill-rule="evenodd"></path><path id="path3" d="M49.743 54.545 C 49.680 54.841,49.553 55.177,49.460 55.292 C 49.368 55.406,49.332 55.500,49.381 55.500 C 49.430 55.500,49.333 55.950,49.167 56.500 C 49.000 57.050,48.891 57.500,48.925 57.500 C 48.958 57.500,48.876 57.809,48.743 58.188 C 48.609 58.566,48.500 59.053,48.500 59.271 C 48.500 59.536,48.403 59.668,48.208 59.669 C 48.016 59.671,47.983 59.714,48.112 59.796 C 48.255 59.887,48.155 60.476,47.735 62.002 C 47.420 63.147,47.008 64.646,46.820 65.333 C 46.632 66.021,46.408 66.608,46.321 66.639 C 46.235 66.670,46.211 66.770,46.267 66.861 C 46.463 67.178,45.792 69.666,45.510 69.669 C 45.316 69.671,45.303 69.706,45.460 69.805 C 45.625 69.910,45.600 70.142,45.344 70.886 C 45.165 71.407,45.066 71.833,45.126 71.833 C 45.185 71.833,45.149 71.917,45.046 72.020 C 44.944 72.123,44.899 72.311,44.948 72.437 C 44.996 72.563,44.953 72.667,44.851 72.667 C 44.246 72.667,44.820 72.995,45.595 73.092 C 48.969 73.514,52.975 70.822,54.552 67.074 C 55.312 65.268,55.873 60.502,55.326 60.500 C 55.276 60.500,55.147 60.169,55.039 59.764 C 54.393 57.348,52.535 55.125,50.427 54.244 L 49.858 54.006 49.743 54.545 M31.667 55.423 C 31.009 55.643,30.509 55.727,30.394 55.638 C 30.273 55.544,30.165 55.596,30.094 55.783 C 29.998 56.032,29.960 56.038,29.827 55.829 C 29.737 55.686,29.671 55.665,29.669 55.778 C 29.668 55.885,29.274 56.057,28.794 56.160 C 28.313 56.263,27.308 56.534,26.559 56.762 C 25.809 56.991,24.965 57.194,24.682 57.214 C 24.399 57.234,24.167 57.298,24.167 57.357 C 24.167 57.464,23.619 57.634,22.833 57.772 C 22.604 57.812,22.042 57.968,21.583 58.118 C 21.125 58.269,20.600 58.410,20.417 58.432 C 20.233 58.454,20.083 58.484,20.083 58.499 C 20.083 58.514,19.971 58.550,19.833 58.580 C 19.696 58.610,18.721 58.867,17.667 59.151 C 16.612 59.435,15.426 59.753,15.030 59.859 C 14.151 60.092,14.171 60.366,15.167 61.834 C 18.225 66.337,24.772 67.026,29.654 63.358 C 30.150 62.986,30.629 62.727,30.720 62.783 C 30.811 62.839,30.843 62.817,30.792 62.734 C 30.740 62.651,31.047 62.118,31.474 61.551 C 32.144 60.660,32.437 60.063,33.096 58.250 C 33.162 58.067,33.230 57.331,33.247 56.616 C 33.283 55.009,33.168 54.922,31.667 55.423 M34.786 63.631 C 31.054 67.364,28.000 70.479,28.000 70.554 C 28.000 70.980,30.556 72.333,31.360 72.333 C 31.610 72.333,31.849 72.391,31.893 72.462 C 31.990 72.618,33.975 72.593,34.350 72.432 C 34.497 72.368,34.684 72.329,34.767 72.345 C 34.849 72.360,34.954 72.358,35.000 72.341 C 35.046 72.323,35.262 72.276,35.480 72.235 C 37.780 71.811,41.437 68.832,42.412 66.590 C 42.533 66.311,42.766 65.783,42.931 65.417 C 43.298 64.597,43.255 64.752,43.412 63.705 C 43.485 63.221,43.609 62.786,43.689 62.736 C 43.883 62.616,43.874 61.376,43.678 61.306 C 43.592 61.275,43.495 60.950,43.461 60.583 C 43.386 59.775,42.432 57.650,41.933 57.182 L 41.572 56.843 34.786 63.631 " stroke="none" fill="#5dbcc4" fill-rule="evenodd"></path><path id="path4" d="M33.417 7.071 C 29.815 8.091,27.482 10.452,26.268 14.305 C 26.027 15.069,25.863 15.746,25.902 15.809 C 25.941 15.873,25.875 16.351,25.754 16.871 C 25.633 17.391,25.598 17.839,25.676 17.867 C 25.796 17.909,25.985 19.001,26.053 20.042 C 26.063 20.202,26.115 20.333,26.168 20.333 C 26.221 20.333,26.401 20.737,26.569 21.230 C 27.159 22.964,29.346 25.278,30.845 25.754 C 31.199 25.866,31.724 25.560,31.579 25.326 C 31.532 25.251,31.572 25.142,31.667 25.083 C 31.761 25.025,31.801 24.916,31.755 24.841 C 31.709 24.767,31.810 24.303,31.979 23.811 C 32.148 23.319,32.297 22.860,32.310 22.792 C 32.323 22.723,32.340 22.648,32.347 22.625 C 32.355 22.602,32.384 22.433,32.412 22.250 C 32.440 22.067,32.701 21.054,32.991 20.000 C 33.282 18.946,33.536 18.008,33.556 17.917 C 33.576 17.825,33.651 17.656,33.723 17.542 C 33.794 17.427,33.815 17.333,33.769 17.333 C 33.723 17.333,33.802 16.940,33.946 16.458 C 34.089 15.977,34.222 15.484,34.240 15.362 C 34.258 15.240,34.370 15.080,34.489 15.007 C 34.633 14.918,34.643 14.853,34.521 14.812 C 34.392 14.768,34.410 14.502,34.581 13.917 C 35.078 12.221,35.689 10.076,35.743 9.833 C 35.773 9.695,35.890 9.245,36.002 8.833 C 36.114 8.421,36.217 8.008,36.232 7.917 C 36.247 7.825,36.309 7.671,36.369 7.575 C 36.747 6.972,34.889 6.655,33.417 7.071 M47.049 7.556 C 47.001 7.633,46.821 7.659,46.648 7.613 C 46.475 7.568,46.297 7.591,46.252 7.663 C 46.207 7.736,45.910 7.844,45.592 7.904 C 42.784 8.431,39.528 11.426,38.385 14.533 C 38.139 15.202,37.885 15.772,37.820 15.800 C 37.755 15.827,37.742 16.003,37.792 16.192 C 37.843 16.389,37.783 16.597,37.649 16.681 C 37.483 16.786,37.476 16.829,37.625 16.831 C 37.769 16.833,37.833 17.156,37.833 17.883 C 37.833 18.493,37.746 19.028,37.625 19.158 C 37.509 19.283,37.499 19.336,37.604 19.278 C 37.720 19.213,37.825 19.387,37.882 19.736 C 37.990 20.403,38.866 22.245,39.351 22.826 L 39.693 23.236 46.513 16.375 C 50.264 12.601,53.333 9.454,53.333 9.380 C 53.333 9.060,51.071 7.895,50.167 7.749 C 49.754 7.683,49.348 7.587,49.264 7.537 C 49.014 7.388,47.142 7.404,47.049 7.556 M57.833 14.219 C 57.788 14.262,57.379 14.348,56.926 14.408 C 52.858 14.951,49.205 17.988,48.299 21.583 C 48.183 22.042,48.050 22.454,48.003 22.500 C 47.866 22.633,47.901 24.333,48.040 24.333 C 48.110 24.333,48.167 24.454,48.167 24.602 C 48.167 24.943,48.276 24.924,52.083 23.922 C 53.733 23.487,55.241 23.103,55.434 23.067 C 55.627 23.031,56.104 22.890,56.494 22.752 C 56.883 22.615,57.263 22.540,57.337 22.586 C 57.411 22.631,57.497 22.608,57.527 22.534 C 57.576 22.417,59.754 21.785,60.762 21.596 C 60.952 21.560,61.495 21.415,61.970 21.274 C 62.445 21.133,62.833 21.047,62.833 21.083 C 62.833 21.119,63.255 21.004,63.770 20.827 C 64.284 20.649,64.767 20.542,64.841 20.588 C 64.916 20.634,65.020 20.602,65.073 20.517 C 65.125 20.432,65.470 20.311,65.838 20.249 C 67.170 20.024,67.168 19.690,65.825 17.738 C 64.815 16.270,62.286 14.801,60.142 14.437 C 59.074 14.255,57.910 14.145,57.833 14.219 " stroke="none" fill="#f7b801" fill-rule="evenodd"></path><path id="path5" d="M50.016 7.680 C 50.303 7.862,50.667 7.878,50.667 7.708 C 50.666 7.640,50.467 7.572,50.224 7.558 C 49.908 7.539,49.849 7.574,50.016 7.680 M28.923 9.493 C 28.569 9.856,28.205 10.107,28.114 10.051 C 28.019 9.992,28.001 10.034,28.072 10.148 C 28.140 10.258,28.099 10.476,27.981 10.632 C 27.691 11.017,27.956 10.753,28.912 9.708 C 29.849 8.684,29.857 8.537,28.923 9.493 M40.824 10.625 L 40.250 11.250 40.875 10.676 C 41.219 10.360,41.500 10.078,41.500 10.051 C 41.500 9.923,41.359 10.043,40.824 10.625 M51.824 10.958 L 51.250 11.583 51.875 11.009 C 52.219 10.693,52.500 10.412,52.500 10.384 C 52.500 10.257,52.359 10.377,51.824 10.958 M35.113 11.958 C 34.997 12.154,34.784 13.260,34.880 13.167 C 34.989 13.060,35.326 11.833,35.246 11.833 C 35.213 11.833,35.153 11.890,35.113 11.958 M26.744 12.511 C 26.599 12.793,26.503 13.089,26.532 13.170 C 26.560 13.251,26.709 13.021,26.863 12.659 C 27.194 11.878,27.120 11.785,26.744 12.511 M38.491 13.792 C 38.153 14.717,38.144 14.753,38.301 14.583 C 38.483 14.385,38.851 13.333,38.737 13.333 C 38.694 13.333,38.583 13.540,38.491 13.792 M26.195 13.991 C 26.097 14.271,26.053 14.500,26.096 14.500 C 26.209 14.500,26.523 13.634,26.441 13.552 C 26.403 13.514,26.292 13.712,26.195 13.991 M25.604 16.590 C 25.547 16.739,25.508 17.061,25.517 17.305 C 25.530 17.663,25.563 17.623,25.686 17.100 C 25.842 16.433,25.790 16.105,25.604 16.590 M37.721 17.917 C 37.722 18.558,37.752 18.800,37.788 18.455 C 37.824 18.109,37.824 17.584,37.787 17.288 C 37.750 16.992,37.721 17.275,37.721 17.917 M21.583 17.276 C 21.615 17.445,21.656 17.621,21.674 17.667 C 21.692 17.712,21.695 17.812,21.682 17.887 C 21.669 17.963,21.739 17.975,21.837 17.914 C 21.961 17.838,21.949 17.723,21.800 17.543 C 21.681 17.399,21.608 17.250,21.639 17.210 C 21.669 17.171,21.656 17.101,21.610 17.054 C 21.563 17.008,21.551 17.108,21.583 17.276 M33.271 18.854 C 33.132 19.549,33.267 19.684,33.417 19.000 C 33.480 18.712,33.497 18.441,33.455 18.399 C 33.412 18.357,33.329 18.561,33.271 18.854 M48.496 20.428 C 48.406 20.663,48.333 20.930,48.333 21.021 C 48.333 21.112,48.247 21.133,48.141 21.067 C 48.017 20.991,47.994 21.022,48.076 21.155 C 48.238 21.416,48.405 21.232,48.635 20.542 C 48.849 19.902,48.732 19.807,48.496 20.428 M38.439 21.661 C 38.576 21.935,38.753 22.200,38.833 22.249 C 38.912 22.299,38.865 22.114,38.728 21.839 C 38.591 21.565,38.414 21.300,38.334 21.251 C 38.255 21.201,38.302 21.386,38.439 21.661 M57.875 22.284 C 57.669 22.324,57.500 22.424,57.500 22.507 C 57.500 22.594,57.683 22.589,57.931 22.495 C 58.168 22.405,58.430 22.373,58.514 22.425 C 58.598 22.477,58.667 22.440,58.667 22.343 C 58.667 22.164,58.546 22.155,57.875 22.284 M27.956 23.833 C 28.196 24.200,28.461 24.500,28.544 24.500 C 28.627 24.500,28.457 24.200,28.167 23.833 C 27.876 23.467,27.612 23.167,27.579 23.167 C 27.546 23.167,27.716 23.467,27.956 23.833 M52.000 23.925 C 51.508 24.066,51.393 24.140,51.667 24.141 C 51.896 24.141,52.346 24.040,52.667 23.917 C 53.399 23.635,52.995 23.640,52.000 23.925 M31.808 24.292 C 31.761 24.835,31.741 24.916,31.612 25.123 C 31.527 25.258,31.561 25.300,31.708 25.243 C 31.833 25.195,31.942 24.898,31.951 24.578 C 31.967 23.989,31.854 23.762,31.808 24.292 M50.250 24.403 L 49.750 24.623 50.208 24.603 C 50.460 24.592,50.666 24.519,50.667 24.441 C 50.667 24.362,50.779 24.341,50.917 24.394 C 51.054 24.446,51.167 24.417,51.167 24.328 C 51.167 24.111,50.853 24.136,50.250 24.403 M62.960 25.118 C 63.168 25.158,63.468 25.156,63.627 25.115 C 63.786 25.073,63.617 25.040,63.250 25.042 C 62.883 25.044,62.753 25.078,62.960 25.118 M59.833 25.500 C 59.833 25.592,59.702 25.667,59.542 25.667 C 59.381 25.667,58.737 26.005,58.110 26.417 C 57.482 26.829,56.910 27.167,56.837 27.167 C 56.765 27.167,56.665 27.322,56.615 27.512 C 56.565 27.703,56.388 27.895,56.221 27.940 C 56.053 27.986,55.784 28.299,55.621 28.636 C 55.397 29.103,55.388 29.170,55.586 28.918 C 56.708 27.485,58.406 26.194,59.542 25.911 C 59.912 25.819,60.227 25.333,59.917 25.333 C 59.871 25.333,59.833 25.408,59.833 25.500 M66.092 25.478 C 66.360 25.723,67.833 26.156,67.833 25.990 C 67.833 25.904,67.758 25.833,67.667 25.833 C 67.383 25.833,67.355 25.825,66.758 25.576 C 66.100 25.301,65.859 25.266,66.092 25.478 M31.288 25.735 C 31.005 25.949,31.006 25.963,31.294 26.038 C 31.504 26.093,31.595 26.024,31.595 25.808 C 31.595 25.639,31.593 25.502,31.589 25.505 C 31.586 25.508,31.450 25.612,31.288 25.735 M68.786 26.668 C 69.264 26.942,69.714 27.165,69.786 27.164 C 69.975 27.160,68.282 26.173,68.083 26.171 C 67.992 26.170,68.308 26.394,68.786 26.668 M71.442 28.875 C 71.721 29.173,72.070 29.597,72.216 29.817 C 72.471 30.198,72.482 30.200,72.456 29.863 C 72.442 29.668,72.328 29.470,72.204 29.422 C 72.080 29.375,72.022 29.266,72.075 29.180 C 72.128 29.094,72.027 28.978,71.851 28.922 C 71.675 28.866,71.489 28.711,71.437 28.577 C 71.386 28.443,71.252 28.333,71.139 28.333 C 71.027 28.333,71.163 28.577,71.442 28.875 M54.890 29.902 C 54.583 30.546,54.681 31.009,55.120 30.981 C 55.398 30.963,55.398 30.957,55.125 30.885 C 54.766 30.791,54.755 30.469,55.088 29.825 C 55.227 29.555,55.301 29.333,55.252 29.333 C 55.202 29.333,55.039 29.589,54.890 29.902 M13.750 30.833 C 14.108 31.200,14.438 31.500,14.484 31.500 C 14.530 31.500,14.275 31.200,13.917 30.833 C 13.559 30.467,13.228 30.167,13.182 30.167 C 13.137 30.167,13.392 30.467,13.750 30.833 M56.083 31.268 C 56.450 31.403,56.862 31.531,57.000 31.553 C 57.137 31.575,57.346 31.653,57.463 31.726 C 57.805 31.939,58.755 32.021,58.554 31.820 C 58.460 31.726,58.200 31.630,57.976 31.606 C 57.752 31.582,57.479 31.506,57.368 31.438 C 57.257 31.370,57.167 31.352,57.167 31.399 C 57.167 31.447,56.857 31.376,56.479 31.243 C 56.101 31.109,55.707 31.005,55.604 31.012 C 55.501 31.018,55.717 31.134,56.083 31.268 M73.076 31.417 C 73.147 31.600,73.242 31.881,73.288 32.042 C 73.334 32.202,73.440 32.333,73.524 32.333 C 73.607 32.333,73.551 32.090,73.400 31.792 C 73.075 31.154,72.892 30.942,73.076 31.417 M59.833 32.343 C 59.833 32.440,59.900 32.478,59.982 32.428 C 60.064 32.377,60.439 32.444,60.816 32.577 C 61.192 32.710,61.500 32.759,61.500 32.686 C 61.500 32.555,60.394 32.167,60.022 32.167 C 59.918 32.167,59.833 32.246,59.833 32.343 M16.417 33.500 C 16.775 33.867,17.105 34.167,17.151 34.167 C 17.197 34.167,16.941 33.867,16.583 33.500 C 16.225 33.133,15.895 32.833,15.849 32.833 C 15.803 32.833,16.059 33.133,16.417 33.500 M63.083 33.154 C 64.458 33.644,64.768 33.722,64.583 33.534 C 64.410 33.357,62.741 32.824,62.428 32.846 C 62.330 32.852,62.625 32.991,63.083 33.154 M64.833 33.692 C 64.833 33.785,64.927 33.829,65.042 33.789 C 65.156 33.750,65.625 33.845,66.083 34.000 C 66.542 34.155,67.010 34.250,67.125 34.211 C 67.240 34.171,67.333 34.218,67.333 34.314 C 67.333 34.411,67.446 34.446,67.583 34.394 C 67.721 34.341,67.833 34.387,67.833 34.496 C 67.833 34.605,67.927 34.661,68.042 34.621 C 68.156 34.581,68.419 34.610,68.625 34.686 C 68.852 34.770,69.000 34.761,69.000 34.663 C 69.000 34.573,68.971 34.500,68.935 34.500 C 68.899 34.500,68.165 34.317,67.303 34.093 C 65.228 33.554,64.833 33.490,64.833 33.692 M70.252 35.004 C 70.363 35.183,71.000 35.325,71.000 35.170 C 71.000 35.098,70.815 35.003,70.588 34.960 C 70.362 34.917,70.211 34.937,70.252 35.004 M19.083 36.167 C 19.441 36.533,19.772 36.833,19.818 36.833 C 19.863 36.833,19.608 36.533,19.250 36.167 C 18.892 35.800,18.562 35.500,18.516 35.500 C 18.470 35.500,18.725 35.800,19.083 36.167 M73.167 35.667 C 72.823 35.777,72.809 35.803,73.083 35.814 C 73.267 35.822,73.529 35.756,73.667 35.667 C 73.959 35.478,73.756 35.478,73.167 35.667 M62.375 37.115 C 62.535 37.157,62.798 37.157,62.958 37.115 C 63.119 37.073,62.987 37.039,62.667 37.039 C 62.346 37.039,62.215 37.073,62.375 37.115 M59.388 37.566 C 59.097 37.672,58.716 37.888,58.541 38.046 C 58.366 38.205,58.192 38.311,58.153 38.283 C 58.115 38.255,57.896 38.417,57.667 38.642 C 57.205 39.097,57.404 39.011,58.447 38.305 C 58.830 38.046,59.209 37.833,59.290 37.833 C 59.370 37.833,59.582 37.723,59.760 37.589 C 60.133 37.306,60.104 37.305,59.388 37.566 M65.500 37.484 C 65.500 37.623,66.184 37.872,66.285 37.770 C 66.312 37.743,66.147 37.635,65.917 37.531 C 65.688 37.426,65.500 37.405,65.500 37.484 M66.605 37.784 C 66.551 37.838,67.049 38.201,67.712 38.590 C 68.928 39.305,70.582 40.832,71.204 41.814 C 71.549 42.360,71.758 42.432,71.569 41.941 C 71.512 41.790,71.397 41.667,71.316 41.667 C 71.234 41.667,71.167 41.592,71.167 41.500 C 71.167 41.129,69.937 39.893,68.760 39.083 C 68.228 38.717,67.705 38.342,67.598 38.250 C 67.229 37.934,66.702 37.687,66.605 37.784 M64.249 45.958 C 68.241 49.975,71.207 52.833,71.384 52.833 C 71.550 52.833,71.643 52.763,71.590 52.677 C 71.536 52.591,71.588 52.460,71.705 52.385 C 71.912 52.253,72.507 51.107,72.493 50.869 C 72.489 50.804,72.341 51.012,72.165 51.333 C 71.988 51.654,71.694 52.104,71.511 52.333 L 71.178 52.750 64.297 45.917 L 57.417 39.083 64.249 45.958 M72.116 43.415 C 72.268 43.734,72.423 43.966,72.459 43.930 C 72.535 43.854,72.029 42.833,71.915 42.833 C 71.873 42.833,71.963 43.095,72.116 43.415 M73.065 47.500 C 73.065 49.060,73.081 49.155,73.212 48.375 C 73.297 47.871,73.297 47.129,73.212 46.625 C 73.081 45.845,73.065 45.940,73.065 47.500 M56.250 47.333 C 56.193 47.425,56.297 47.500,56.480 47.500 C 56.664 47.500,56.860 47.425,56.917 47.333 C 56.973 47.242,56.870 47.167,56.686 47.167 C 56.503 47.167,56.307 47.242,56.250 47.333 M57.583 47.333 C 57.640 47.425,57.794 47.500,57.927 47.500 C 58.059 47.500,58.167 47.425,58.167 47.333 C 58.167 47.242,58.012 47.167,57.823 47.167 C 57.635 47.167,57.527 47.242,57.583 47.333 M55.397 47.532 C 55.330 47.641,55.358 47.758,55.461 47.793 C 55.564 47.827,55.607 47.963,55.556 48.094 C 55.506 48.226,55.543 48.333,55.638 48.333 C 55.734 48.333,55.809 48.465,55.804 48.625 C 55.799 48.785,55.913 49.286,56.057 49.737 C 56.200 50.188,56.279 50.619,56.232 50.695 C 56.185 50.771,56.226 50.833,56.323 50.833 C 56.565 50.833,56.545 50.503,56.255 49.680 C 56.120 49.298,55.960 48.613,55.900 48.159 C 55.792 47.342,55.635 47.147,55.397 47.532 M58.667 47.487 C 58.667 47.563,58.873 47.667,59.125 47.717 C 59.377 47.768,59.715 47.861,59.875 47.923 C 60.059 47.994,60.167 47.957,60.167 47.823 C 60.167 47.707,60.122 47.655,60.068 47.710 C 60.014 47.764,59.677 47.704,59.318 47.578 C 58.960 47.452,58.667 47.410,58.667 47.487 M60.334 47.974 C 60.334 48.034,60.727 48.308,61.207 48.583 C 62.258 49.185,62.587 49.313,61.956 48.876 C 61.702 48.700,61.402 48.441,61.289 48.300 C 61.076 48.034,60.333 47.781,60.334 47.974 M63.169 50.083 C 63.583 50.542,64.085 51.142,64.285 51.417 C 64.617 51.875,64.645 51.885,64.622 51.542 C 64.607 51.335,64.499 51.167,64.381 51.167 C 64.263 51.167,64.159 51.073,64.150 50.958 C 64.140 50.844,63.747 50.413,63.275 50.000 L 62.417 49.250 63.169 50.083 M56.621 51.804 C 56.772 52.275,56.926 52.629,56.964 52.591 C 57.054 52.502,56.668 51.295,56.487 51.099 C 56.410 51.015,56.470 51.333,56.621 51.804 M65.763 54.416 C 65.865 54.938,65.953 55.103,66.068 54.986 C 66.105 54.948,66.030 54.692,65.900 54.417 L 65.665 53.917 65.763 54.416 M57.634 55.422 C 57.774 55.923,57.917 56.305,57.952 56.271 C 58.046 56.177,57.646 54.673,57.503 54.585 C 57.436 54.544,57.495 54.920,57.634 55.422 M66.116 56.157 C 66.165 56.346,66.272 56.500,66.353 56.500 C 66.578 56.500,66.528 56.231,66.263 56.011 C 66.069 55.850,66.042 55.876,66.116 56.157 M58.009 56.711 C 57.999 57.036,58.549 59.174,58.813 59.833 C 59.070 60.479,59.029 59.958,58.763 59.203 C 58.632 58.833,58.554 58.502,58.589 58.467 C 58.624 58.432,58.510 57.956,58.335 57.410 C 58.161 56.864,58.014 56.549,58.009 56.711 M66.189 57.782 C 66.177 58.349,66.223 58.848,66.292 58.891 C 66.360 58.933,66.395 58.619,66.368 58.192 C 66.285 56.870,66.213 56.705,66.189 57.782 M65.929 60.512 C 65.774 60.984,65.682 61.404,65.724 61.446 C 65.765 61.488,65.927 61.137,66.083 60.667 C 66.240 60.196,66.332 59.776,66.288 59.733 C 66.245 59.689,66.083 60.040,65.929 60.512 M59.463 62.330 C 59.609 62.787,59.754 63.135,59.786 63.103 C 59.883 63.006,59.439 61.500,59.314 61.500 C 59.250 61.500,59.317 61.874,59.463 62.330 M64.425 63.594 C 64.271 63.829,63.831 64.331,63.447 64.710 C 62.876 65.273,62.845 65.332,63.276 65.032 C 63.565 64.831,63.896 64.667,64.012 64.667 C 64.128 64.667,64.175 64.619,64.117 64.561 C 63.970 64.414,64.319 63.805,64.489 63.910 C 64.566 63.957,64.664 63.809,64.708 63.581 C 64.807 63.062,64.773 63.063,64.425 63.594 M60.059 64.751 C 60.073 64.979,60.148 65.166,60.226 65.167 C 60.305 65.167,60.326 65.279,60.273 65.417 C 60.220 65.554,60.245 65.667,60.327 65.667 C 60.409 65.667,60.501 65.835,60.530 66.042 C 60.581 66.403,61.333 66.655,61.333 66.311 C 61.333 66.231,61.427 66.165,61.542 66.163 C 61.656 66.161,61.938 66.002,62.167 65.810 L 62.583 65.460 62.167 65.703 C 61.938 65.836,61.516 66.025,61.231 66.123 L 60.712 66.300 60.494 65.392 C 60.261 64.422,60.020 64.066,60.059 64.751 " stroke="none" fill="#f49c7d" fill-rule="evenodd"></path><path id="path6" d="M49.682 54.215 C 49.395 54.984,49.296 55.413,49.438 55.278 C 49.518 55.202,49.658 54.880,49.750 54.564 L 49.917 53.988 50.833 54.442 C 52.700 55.367,54.458 57.590,55.039 59.764 C 55.147 60.169,55.291 60.500,55.359 60.500 C 55.427 60.500,55.340 60.087,55.167 59.583 C 54.993 59.079,54.881 58.667,54.917 58.667 C 55.040 58.667,54.496 57.500,54.206 57.138 C 52.420 54.917,50.004 53.355,49.682 54.215 M30.792 55.302 C 30.359 55.353,30.184 55.568,30.458 55.713 C 30.527 55.750,30.996 55.644,31.500 55.479 C 32.437 55.172,32.265 55.129,30.792 55.302 M33.241 56.682 C 33.236 57.314,33.291 57.738,33.363 57.624 C 33.529 57.363,33.536 55.981,33.372 55.724 C 33.305 55.619,33.246 56.050,33.241 56.682 M49.071 56.091 C 48.917 56.914,49.063 56.964,49.277 56.161 C 49.374 55.798,49.393 55.500,49.318 55.500 C 49.243 55.500,49.132 55.766,49.071 56.091 M29.000 55.941 L 28.417 56.171 28.988 56.084 C 29.555 55.997,29.786 55.889,29.653 55.772 C 29.615 55.739,29.321 55.815,29.000 55.941 M26.250 56.667 C 25.517 56.927,24.984 57.146,25.065 57.154 C 25.328 57.177,27.578 56.474,27.742 56.318 C 27.988 56.083,27.708 56.149,26.250 56.667 M38.513 59.684 C 36.916 61.316,35.529 62.605,35.430 62.549 C 35.331 62.493,35.308 62.511,35.380 62.589 C 35.451 62.667,33.735 64.512,31.566 66.687 L 27.623 70.643 28.103 71.090 C 28.972 71.899,32.299 73.119,31.907 72.484 C 31.856 72.401,31.610 72.333,31.360 72.333 C 30.554 72.333,28.000 70.980,28.000 70.553 C 28.000 70.477,31.059 67.356,34.799 63.618 L 41.597 56.821 41.955 57.202 C 42.151 57.412,42.549 58.090,42.839 58.708 C 43.446 60.008,43.642 60.200,43.178 59.042 C 42.551 57.477,41.910 56.577,41.505 56.692 C 41.456 56.705,40.110 58.052,38.513 59.684 M23.542 57.374 C 23.244 57.470,23.000 57.605,23.000 57.675 C 23.000 57.745,23.262 57.722,23.583 57.623 C 23.904 57.525,24.167 57.382,24.167 57.305 C 24.167 57.229,24.148 57.174,24.125 57.184 C 24.102 57.193,23.840 57.279,23.542 57.374 M48.607 57.875 C 48.554 58.081,48.504 58.268,48.498 58.289 C 48.492 58.311,48.381 58.630,48.251 58.998 C 48.045 59.580,48.046 59.667,48.257 59.667 C 48.402 59.667,48.500 59.506,48.500 59.271 C 48.500 59.053,48.609 58.566,48.743 58.188 C 48.876 57.809,48.922 57.500,48.845 57.500 C 48.768 57.500,48.661 57.669,48.607 57.875 M21.500 57.859 C 21.179 57.946,20.167 58.234,19.250 58.499 C 18.333 58.763,17.104 59.112,16.518 59.274 C 15.932 59.435,15.527 59.592,15.618 59.623 C 15.710 59.653,16.640 59.444,17.684 59.157 C 18.729 58.870,19.696 58.610,19.833 58.580 C 19.971 58.550,20.083 58.514,20.083 58.499 C 20.083 58.484,20.233 58.454,20.417 58.432 C 20.909 58.372,22.059 57.982,22.242 57.813 C 22.434 57.636,22.291 57.644,21.500 57.859 M33.116 58.125 C 32.987 58.355,32.805 59.251,32.908 59.147 C 33.032 59.023,33.335 58.000,33.248 58.000 C 33.214 58.000,33.155 58.056,33.116 58.125 M32.464 59.926 C 31.822 61.526,29.869 63.496,28.042 64.387 C 27.176 64.810,27.111 65.037,27.937 64.753 C 28.533 64.548,28.926 64.272,30.135 63.208 C 30.473 62.911,30.802 62.667,30.867 62.667 C 31.197 62.666,32.917 59.836,32.800 59.484 C 32.761 59.366,32.610 59.565,32.464 59.926 M48.000 60.269 C 47.903 60.533,47.793 60.836,47.757 60.942 C 47.720 61.048,47.737 61.182,47.795 61.240 C 47.853 61.298,47.995 61.027,48.110 60.638 C 48.349 59.827,48.265 59.545,48.000 60.269 M14.250 60.368 C 14.452 61.431,14.919 62.152,16.184 63.356 C 17.466 64.576,17.819 64.823,18.441 64.934 C 18.703 64.981,19.090 65.132,19.302 65.270 C 19.514 65.408,19.776 65.488,19.885 65.447 C 19.994 65.406,19.858 65.285,19.583 65.177 C 17.038 64.178,15.143 62.452,14.358 60.417 C 14.176 59.946,14.170 59.944,14.250 60.368 M43.392 60.222 C 43.451 60.390,43.500 60.709,43.500 60.930 C 43.500 61.152,43.584 61.333,43.688 61.333 C 43.919 61.333,43.747 60.340,43.472 60.089 C 43.336 59.964,43.314 60.001,43.392 60.222 M47.579 61.659 C 47.633 61.747,47.562 62.094,47.422 62.430 C 47.124 63.143,47.120 63.167,47.314 63.167 C 47.394 63.167,47.544 62.833,47.647 62.426 C 47.875 61.519,47.876 61.500,47.657 61.500 C 47.560 61.500,47.525 61.572,47.579 61.659 M43.621 62.781 C 43.578 62.855,43.482 63.292,43.409 63.750 C 43.335 64.208,43.263 64.621,43.248 64.667 C 43.175 64.898,42.825 65.686,42.450 66.463 C 42.219 66.942,42.096 67.333,42.177 67.333 C 42.338 67.333,42.833 66.458,42.833 66.173 C 42.833 66.076,42.977 65.678,43.152 65.290 C 43.653 64.177,44.055 62.032,43.621 62.781 M55.174 65.192 C 54.367 68.429,52.485 70.875,49.802 72.172 C 49.050 72.536,48.565 72.833,48.725 72.833 C 48.886 72.833,49.257 72.705,49.550 72.549 C 49.843 72.393,50.140 72.280,50.208 72.299 C 50.277 72.318,50.333 72.258,50.333 72.167 C 50.333 72.075,50.390 72.016,50.458 72.035 C 50.897 72.160,53.117 70.108,53.832 68.917 C 54.052 68.550,54.287 68.212,54.353 68.165 C 54.419 68.118,54.529 67.856,54.596 67.582 C 54.663 67.308,54.769 67.046,54.832 67.000 C 54.984 66.888,55.535 64.646,55.435 64.546 C 55.391 64.502,55.274 64.793,55.174 65.192 M26.167 65.167 C 25.127 65.520,25.281 65.602,26.414 65.299 C 26.828 65.188,27.167 65.038,27.167 64.965 C 27.167 64.893,27.148 64.838,27.125 64.844 C 27.102 64.850,26.671 64.995,26.167 65.167 M46.463 65.836 C 46.317 66.293,46.256 66.667,46.327 66.667 C 46.476 66.667,46.918 65.196,46.804 65.082 C 46.762 65.040,46.609 65.380,46.463 65.836 M45.866 68.056 C 45.654 68.713,45.442 69.344,45.393 69.458 C 45.345 69.573,45.410 69.667,45.538 69.667 C 45.753 69.667,46.482 67.092,46.314 66.926 C 46.279 66.891,46.077 67.400,45.866 68.056 M41.286 68.329 C 40.109 69.905,37.024 71.987,35.526 72.216 C 34.960 72.302,34.900 72.500,35.440 72.500 C 35.713 72.500,36.082 72.390,36.260 72.255 C 36.438 72.121,36.743 72.008,36.938 72.005 C 37.133 72.002,37.386 71.887,37.500 71.750 C 37.614 71.612,37.776 71.500,37.860 71.500 C 38.018 71.500,38.843 70.943,39.342 70.500 C 41.140 68.903,42.163 67.774,41.979 67.590 C 41.934 67.545,41.622 67.878,41.286 68.329 M45.336 70.162 C 45.231 70.358,45.178 70.608,45.219 70.718 C 45.260 70.827,45.380 70.700,45.485 70.435 C 45.714 69.858,45.606 69.658,45.336 70.162 M32.794 72.618 C 33.001 72.658,33.301 72.656,33.460 72.615 C 33.620 72.573,33.450 72.540,33.083 72.542 C 32.717 72.544,32.586 72.578,32.794 72.618 " stroke="none" fill="#b8e0e5" fill-rule="evenodd"></path><path id="path7" d="M33.417 7.071 C 29.815 8.091,27.482 10.452,26.268 14.305 C 26.027 15.069,25.863 15.746,25.902 15.809 C 25.941 15.873,25.875 16.351,25.754 16.871 C 25.633 17.391,25.598 17.839,25.676 17.867 C 25.796 17.909,25.985 19.001,26.053 20.042 C 26.063 20.202,26.115 20.333,26.168 20.333 C 26.221 20.333,26.401 20.737,26.569 21.230 C 27.159 22.964,29.346 25.278,30.845 25.754 C 31.199 25.866,31.724 25.560,31.579 25.326 C 31.532 25.251,31.572 25.142,31.667 25.083 C 31.761 25.025,31.801 24.916,31.755 24.841 C 31.709 24.767,31.810 24.303,31.979 23.811 C 32.148 23.319,32.297 22.860,32.310 22.792 C 32.323 22.723,32.340 22.648,32.347 22.625 C 32.355 22.602,32.384 22.433,32.412 22.250 C 32.440 22.067,32.701 21.054,32.991 20.000 C 33.282 18.946,33.536 18.008,33.556 17.917 C 33.576 17.825,33.651 17.656,33.723 17.542 C 33.794 17.427,33.815 17.333,33.769 17.333 C 33.723 17.333,33.802 16.940,33.946 16.458 C 34.089 15.977,34.222 15.484,34.240 15.362 C 34.258 15.240,34.370 15.080,34.489 15.007 C 34.633 14.918,34.643 14.853,34.521 14.812 C 34.392 14.768,34.410 14.502,34.581 13.917 C 35.078 12.221,35.689 10.076,35.743 9.833 C 35.773 9.695,35.890 9.245,36.002 8.833 C 36.114 8.421,36.217 8.008,36.232 7.917 C 36.247 7.825,36.309 7.671,36.369 7.575 C 36.747 6.972,34.889 6.655,33.417 7.071 M47.049 7.556 C 47.001 7.633,46.821 7.659,46.648 7.613 C 46.475 7.568,46.297 7.591,46.252 7.663 C 46.207 7.736,45.910 7.844,45.592 7.904 C 42.784 8.431,39.528 11.426,38.385 14.533 C 38.139 15.202,37.885 15.772,37.820 15.800 C 37.755 15.827,37.742 16.003,37.792 16.192 C 37.843 16.389,37.783 16.597,37.649 16.681 C 37.483 16.786,37.476 16.829,37.625 16.831 C 37.769 16.833,37.833 17.156,37.833 17.883 C 37.833 18.493,37.746 19.028,37.625 19.158 C 37.509 19.283,37.499 19.336,37.604 19.278 C 37.720 19.213,37.825 19.387,37.882 19.736 C 37.990 20.403,38.866 22.245,39.351 22.826 L 39.693 23.236 46.513 16.375 C 50.264 12.601,53.333 9.454,53.333 9.380 C 53.333 9.060,51.071 7.895,50.167 7.749 C 49.754 7.683,49.348 7.587,49.264 7.537 C 49.014 7.388,47.142 7.404,47.049 7.556 M57.833 14.219 C 57.788 14.262,57.379 14.348,56.926 14.408 C 52.858 14.951,49.205 17.988,48.299 21.583 C 48.183 22.042,48.050 22.454,48.003 22.500 C 47.866 22.633,47.901 24.333,48.040 24.333 C 48.110 24.333,48.167 24.454,48.167 24.602 C 48.167 24.943,48.276 24.924,52.083 23.922 C 53.733 23.487,55.241 23.103,55.434 23.067 C 55.627 23.031,56.104 22.890,56.494 22.752 C 56.883 22.615,57.263 22.540,57.337 22.586 C 57.411 22.631,57.497 22.608,57.527 22.534 C 57.576 22.417,59.754 21.785,60.762 21.596 C 60.952 21.560,61.495 21.415,61.970 21.274 C 62.445 21.133,62.833 21.047,62.833 21.083 C 62.833 21.119,63.255 21.004,63.770 20.827 C 64.284 20.649,64.767 20.542,64.841 20.588 C 64.916 20.634,65.020 20.602,65.073 20.517 C 65.125 20.432,65.470 20.311,65.838 20.249 C 67.170 20.024,67.168 19.690,65.825 17.738 C 64.815 16.270,62.286 14.801,60.142 14.437 C 59.074 14.255,57.910 14.145,57.833 14.219 " stroke="none" fill="#f7b801" fill-rule="evenodd"></path><path id="path8" d="M31.649 7.424 C 31.017 7.654,29.823 8.332,30.049 8.333 C 30.244 8.334,32.333 7.340,32.333 7.247 C 32.333 7.203,32.315 7.175,32.292 7.186 C 32.269 7.197,31.980 7.304,31.649 7.424 M47.794 7.451 C 48.001 7.491,48.301 7.490,48.460 7.448 C 48.620 7.406,48.450 7.374,48.083 7.375 C 47.717 7.377,47.586 7.411,47.794 7.451 M50.667 7.677 C 50.667 7.767,50.892 7.887,51.167 7.942 C 51.442 7.997,51.667 8.100,51.667 8.171 C 51.667 8.242,51.910 8.386,52.208 8.489 C 52.686 8.656,52.720 8.649,52.500 8.432 C 52.150 8.088,50.667 7.476,50.667 7.677 M43.583 8.296 C 43.308 8.454,43.046 8.626,43.000 8.679 C 42.954 8.732,42.686 8.909,42.403 9.074 C 42.120 9.238,41.792 9.532,41.673 9.728 L 41.456 10.083 41.853 9.733 C 42.529 9.137,43.797 8.333,44.062 8.333 C 44.200 8.333,44.360 8.258,44.417 8.167 C 44.576 7.909,44.138 7.977,43.583 8.296 M28.848 9.461 C 27.743 10.600,27.438 10.981,27.087 11.659 C 26.654 12.496,26.916 12.236,27.670 11.078 C 28.060 10.479,28.752 9.654,29.208 9.245 C 29.663 8.835,29.978 8.500,29.908 8.500 C 29.838 8.500,29.361 8.932,28.848 9.461 M53.251 9.666 C 53.085 9.850,53.026 10.000,53.120 10.000 C 53.330 10.000,53.746 9.524,53.634 9.412 C 53.590 9.367,53.417 9.482,53.251 9.666 M40.615 10.467 C 40.368 10.725,40.167 11.011,40.167 11.104 C 40.167 11.197,39.979 11.436,39.750 11.636 C 39.521 11.835,39.333 12.076,39.333 12.171 C 39.333 12.267,39.573 12.061,39.865 11.714 C 40.158 11.367,40.622 10.840,40.898 10.542 C 41.509 9.881,41.243 9.811,40.615 10.467 M47.040 15.879 C 38.939 24.000,39.733 23.262,39.398 22.986 C 39.150 22.781,39.123 22.783,39.195 23.000 C 39.411 23.653,40.390 23.032,42.076 21.173 C 42.447 20.764,43.049 20.164,43.414 19.840 C 43.779 19.515,44.266 19.040,44.497 18.782 C 44.728 18.525,45.165 18.075,45.468 17.782 C 45.771 17.490,46.334 16.925,46.718 16.527 C 47.102 16.130,47.670 15.567,47.979 15.277 C 48.990 14.329,49.242 14.076,49.840 13.409 C 50.164 13.046,50.764 12.437,51.173 12.055 C 52.185 11.109,52.886 10.330,52.801 10.246 C 52.762 10.207,50.170 12.742,47.040 15.879 M38.724 13.026 C 38.007 14.358,37.867 14.833,38.194 14.833 C 38.301 14.833,38.345 14.789,38.291 14.736 C 38.151 14.596,38.500 13.662,38.892 13.127 C 39.076 12.876,39.181 12.625,39.125 12.570 C 39.070 12.514,38.889 12.720,38.724 13.026 M18.908 14.153 C 17.322 15.324,15.333 17.790,15.333 18.586 C 15.333 18.946,15.672 18.484,16.058 17.599 C 16.515 16.549,17.607 15.327,19.167 14.121 C 19.951 13.515,19.737 13.540,18.908 14.153 M61.500 14.651 C 61.500 14.789,62.184 15.039,62.285 14.937 C 62.312 14.910,62.147 14.802,61.917 14.697 C 61.688 14.593,61.500 14.572,61.500 14.651 M37.895 15.268 C 37.833 15.441,37.752 15.640,37.714 15.708 C 37.677 15.777,37.718 15.833,37.804 15.833 C 37.970 15.833,38.205 15.149,38.081 15.025 C 38.041 14.985,37.957 15.094,37.895 15.268 M53.125 15.307 C 52.401 15.744,52.592 15.878,53.375 15.483 C 54.252 15.041,54.302 14.996,53.903 15.015 C 53.727 15.024,53.377 15.155,53.125 15.307 M63.167 15.318 C 63.167 15.406,63.326 15.528,63.522 15.590 C 64.131 15.784,65.378 16.970,66.187 18.125 C 66.642 18.775,67.014 19.115,66.734 18.625 C 65.923 17.205,63.167 14.650,63.167 15.318 M34.156 15.945 C 34.063 16.190,34.008 16.503,34.035 16.640 C 34.062 16.777,34.167 16.577,34.269 16.195 C 34.477 15.413,34.413 15.270,34.156 15.945 M21.418 16.328 C 21.467 16.646,21.582 16.982,21.674 17.074 C 21.787 17.187,21.791 17.080,21.684 16.746 C 21.399 15.852,21.329 15.741,21.418 16.328 M25.583 16.167 C 25.521 16.364,25.507 16.563,25.553 16.608 C 25.599 16.654,25.687 16.530,25.750 16.333 C 25.813 16.136,25.826 15.937,25.780 15.892 C 25.735 15.846,25.646 15.970,25.583 16.167 M51.833 16.137 C 51.353 16.459,50.000 17.796,50.000 17.948 C 50.000 18.005,50.434 17.646,50.964 17.150 C 51.495 16.655,52.076 16.161,52.256 16.051 C 52.436 15.942,52.508 15.854,52.417 15.855 C 52.325 15.857,52.063 15.983,51.833 16.137 M37.548 17.917 C 37.549 18.375,37.581 18.543,37.620 18.289 C 37.658 18.036,37.657 17.661,37.617 17.456 C 37.578 17.251,37.546 17.458,37.548 17.917 M21.847 18.000 C 21.842 18.137,21.945 18.587,22.075 19.000 C 22.205 19.412,22.315 19.637,22.320 19.500 C 22.324 19.362,22.222 18.912,22.092 18.500 C 21.962 18.087,21.852 17.862,21.847 18.000 M25.500 18.397 C 25.500 18.534,25.575 18.693,25.667 18.750 C 25.758 18.807,25.833 18.741,25.833 18.603 C 25.833 18.466,25.758 18.307,25.667 18.250 C 25.575 18.193,25.500 18.259,25.500 18.397 M33.480 18.630 C 33.425 18.961,33.450 19.117,33.542 19.024 C 33.626 18.940,33.667 18.694,33.633 18.478 C 33.580 18.144,33.557 18.167,33.480 18.630 M49.296 18.792 C 48.387 20.157,47.541 22.153,48.096 21.620 C 48.171 21.549,48.247 21.389,48.265 21.266 C 48.342 20.740,48.579 20.199,49.074 19.417 C 49.820 18.239,49.861 18.167,49.783 18.167 C 49.744 18.167,49.525 18.448,49.296 18.792 M15.228 19.101 C 15.166 19.275,15.085 19.473,15.048 19.542 C 15.011 19.610,15.051 19.667,15.137 19.667 C 15.304 19.667,15.538 18.982,15.414 18.858 C 15.374 18.818,15.290 18.928,15.228 19.101 M25.718 19.492 C 25.747 19.682,25.860 19.912,25.969 20.002 C 26.108 20.117,26.121 20.111,26.013 19.980 C 25.929 19.877,25.896 19.697,25.941 19.580 C 25.986 19.463,25.942 19.317,25.844 19.257 C 25.734 19.189,25.686 19.279,25.718 19.492 M22.347 20.000 C 22.342 20.137,22.445 20.587,22.575 21.000 C 22.705 21.412,22.815 21.637,22.820 21.500 C 22.824 21.363,22.722 20.912,22.592 20.500 C 22.462 20.087,22.352 19.862,22.347 20.000 M37.899 20.764 C 37.954 20.909,38.000 21.059,38.000 21.097 C 38.000 21.135,38.084 21.167,38.187 21.167 C 38.325 21.167,38.325 21.108,38.189 20.943 C 38.086 20.820,38.052 20.670,38.113 20.610 C 38.173 20.549,38.127 20.500,38.010 20.500 C 37.885 20.500,37.839 20.608,37.899 20.764 M63.917 20.833 L 63.583 20.977 63.917 20.986 C 64.100 20.991,64.362 20.922,64.500 20.833 C 64.831 20.619,64.415 20.619,63.917 20.833 M32.593 21.593 C 32.530 21.927,32.512 22.234,32.553 22.275 C 32.593 22.316,32.678 22.075,32.741 21.741 C 32.803 21.406,32.821 21.099,32.781 21.059 C 32.740 21.018,32.655 21.258,32.593 21.593 M26.514 21.822 C 26.701 22.182,26.981 22.575,27.136 22.694 C 27.396 22.895,27.397 22.887,27.149 22.580 C 27.002 22.399,26.778 22.006,26.650 21.708 C 26.523 21.410,26.363 21.167,26.295 21.167 C 26.228 21.167,26.326 21.462,26.514 21.822 M38.167 21.418 C 38.167 21.590,38.537 22.228,38.776 22.467 C 38.899 22.590,39.000 22.619,39.000 22.532 C 39.000 22.445,38.887 22.281,38.750 22.167 C 38.612 22.053,38.500 21.860,38.500 21.739 C 38.500 21.619,38.425 21.473,38.333 21.417 C 38.242 21.360,38.167 21.361,38.167 21.418 M61.375 21.505 C 61.169 21.588,61.000 21.696,61.000 21.745 C 61.000 21.906,61.265 21.837,61.593 21.589 C 61.962 21.310,61.910 21.290,61.375 21.505 M58.958 22.115 C 58.798 22.157,58.667 22.254,58.667 22.330 C 58.667 22.406,58.817 22.430,59.000 22.382 C 59.183 22.334,59.333 22.228,59.333 22.147 C 59.333 22.066,59.315 22.009,59.292 22.019 C 59.269 22.030,59.119 22.073,58.958 22.115 M47.875 23.417 C 47.877 23.783,47.911 23.914,47.951 23.706 C 47.991 23.499,47.990 23.199,47.948 23.040 C 47.906 22.880,47.874 23.050,47.875 23.417 M27.334 23.093 C 27.335 23.262,28.151 24.312,28.161 24.157 C 28.164 24.106,27.979 23.811,27.750 23.500 C 27.521 23.189,27.334 23.006,27.334 23.093 M32.037 23.878 C 31.941 24.358,31.891 24.778,31.924 24.811 C 31.957 24.845,32.030 24.658,32.087 24.395 C 32.143 24.132,32.257 23.751,32.339 23.548 C 32.420 23.345,32.425 23.140,32.348 23.093 C 32.272 23.045,32.132 23.399,32.037 23.878 M54.675 23.325 C 54.542 23.409,54.373 23.441,54.300 23.396 C 54.226 23.351,54.167 23.393,54.167 23.490 C 54.167 23.735,54.378 23.711,54.760 23.422 C 55.117 23.152,55.057 23.083,54.675 23.325 M23.357 23.583 C 23.357 23.767,23.421 24.067,23.500 24.250 L 23.643 24.583 23.643 24.250 C 23.643 24.067,23.579 23.767,23.500 23.583 L 23.357 23.250 23.357 23.583 M51.167 24.310 C 51.167 24.389,51.354 24.418,51.583 24.374 C 51.813 24.330,52.000 24.266,52.000 24.231 C 52.000 24.195,51.813 24.167,51.583 24.167 C 51.354 24.167,51.167 24.231,51.167 24.310 M49.167 24.759 C 48.819 24.888,48.718 24.973,48.917 24.971 C 49.439 24.965,50.098 24.746,49.915 24.640 C 49.824 24.587,49.487 24.641,49.167 24.759 M31.680 25.363 C 31.673 25.517,31.549 25.761,31.405 25.905 C 31.261 26.049,31.221 26.167,31.316 26.167 C 31.547 26.167,31.876 25.532,31.774 25.282 C 31.728 25.170,31.687 25.205,31.680 25.363 M66.500 25.452 C 66.637 25.503,66.900 25.622,67.083 25.716 C 67.381 25.870,67.392 25.858,67.188 25.611 C 67.062 25.458,66.800 25.339,66.605 25.346 C 66.361 25.356,66.328 25.389,66.500 25.452 M23.895 25.868 C 24.043 26.486,24.309 27.167,24.402 27.167 C 24.489 27.167,23.998 25.630,23.869 25.500 C 23.824 25.454,23.835 25.620,23.895 25.868 M15.333 25.982 C 15.333 26.210,16.580 28.485,16.927 28.890 C 17.096 29.088,17.215 29.274,17.190 29.304 C 17.139 29.366,17.843 30.000,17.962 30.000 C 18.005 30.000,17.775 29.676,17.450 29.280 C 16.659 28.314,15.896 27.000,15.755 26.357 C 15.653 25.890,15.333 25.605,15.333 25.982 M57.760 26.422 C 57.582 26.557,57.511 26.667,57.603 26.667 C 57.695 26.667,57.915 26.557,58.093 26.422 C 58.271 26.287,58.342 26.177,58.250 26.177 C 58.158 26.177,57.938 26.287,57.760 26.422 M68.667 26.298 C 68.667 26.365,68.814 26.512,68.994 26.624 C 69.264 26.793,69.305 26.787,69.231 26.594 C 69.134 26.342,68.667 26.097,68.667 26.298 M24.378 27.678 C 24.365 27.855,24.424 28.000,24.510 28.000 C 24.700 28.000,24.719 27.552,24.535 27.438 C 24.462 27.393,24.392 27.501,24.378 27.678 M9.450 27.625 C 9.412 27.694,9.170 28.125,8.913 28.583 C 8.656 29.042,8.523 29.342,8.617 29.250 C 8.858 29.016,9.718 27.500,9.609 27.500 C 9.560 27.500,9.488 27.556,9.450 27.625 M70.917 28.116 C 71.283 28.476,71.613 28.750,71.649 28.723 C 71.760 28.641,71.304 28.168,70.765 27.806 C 70.325 27.511,70.347 27.556,70.917 28.116 M11.743 28.667 C 13.095 30.158,13.273 30.328,12.873 29.750 C 12.682 29.475,12.129 28.875,11.643 28.417 L 10.760 27.583 11.743 28.667 M24.513 28.258 C 24.520 28.345,24.633 28.679,24.765 29.000 L 25.004 29.583 24.916 29.005 C 24.838 28.498,24.479 27.832,24.513 28.258 M55.559 28.364 C 55.241 28.860,54.998 29.387,55.060 29.449 C 55.096 29.485,55.288 29.239,55.486 28.903 C 55.817 28.342,55.883 27.860,55.559 28.364 M13.967 30.877 C 14.358 31.314,16.739 33.748,19.258 36.287 C 21.777 38.825,23.813 40.977,23.783 41.069 C 23.696 41.330,22.191 42.203,21.259 42.534 C 20.589 42.771,20.536 42.813,21.000 42.739 C 21.635 42.638,23.009 42.023,23.206 41.752 C 23.273 41.659,23.329 41.650,23.331 41.731 C 23.332 41.812,23.483 41.688,23.667 41.455 C 24.139 40.855,24.198 40.950,21.957 38.727 C 20.835 37.615,19.684 36.452,19.400 36.144 C 19.116 35.836,18.554 35.275,18.150 34.898 C 17.747 34.521,17.096 33.884,16.704 33.481 C 16.311 33.079,15.861 32.634,15.704 32.492 C 15.546 32.350,15.147 31.938,14.818 31.575 C 14.489 31.213,14.003 30.729,13.739 30.500 C 13.472 30.269,13.574 30.438,13.967 30.877 M18.333 30.500 C 18.431 30.683,18.596 30.833,18.698 30.833 C 18.801 30.833,18.749 30.683,18.583 30.500 C 18.417 30.317,18.253 30.167,18.218 30.167 C 18.183 30.167,18.235 30.317,18.333 30.500 M19.250 31.154 C 19.621 31.579,21.500 32.587,21.500 32.361 C 21.500 32.282,21.181 32.080,20.792 31.912 C 20.402 31.744,19.821 31.418,19.500 31.189 C 18.942 30.790,18.931 30.788,19.250 31.154 M8.039 32.500 C 8.039 32.821,8.073 32.952,8.115 32.792 C 8.157 32.631,8.157 32.369,8.115 32.208 C 8.073 32.048,8.039 32.179,8.039 32.500 M24.750 32.667 C 24.693 32.758,24.759 32.833,24.897 32.833 C 25.034 32.833,25.193 32.758,25.250 32.667 C 25.307 32.575,25.241 32.500,25.103 32.500 C 24.966 32.500,24.807 32.575,24.750 32.667 M8.000 34.000 C 8.000 34.311,8.044 34.356,8.200 34.200 C 8.356 34.044,8.356 33.956,8.200 33.800 C 8.044 33.644,8.000 33.689,8.000 34.000 M8.232 35.264 C 8.288 35.409,8.333 35.559,8.333 35.597 C 8.333 35.635,8.418 35.667,8.520 35.667 C 8.658 35.667,8.658 35.608,8.522 35.443 C 8.420 35.320,8.386 35.170,8.446 35.110 C 8.506 35.049,8.460 35.000,8.343 35.000 C 8.218 35.000,8.173 35.108,8.232 35.264 M73.333 35.833 C 73.131 35.964,73.155 35.995,73.458 35.997 C 73.665 35.999,73.833 35.925,73.833 35.833 C 73.833 35.625,73.656 35.625,73.333 35.833 M8.885 36.669 C 8.990 36.946,9.244 37.377,9.451 37.628 C 9.745 37.984,9.716 37.874,9.317 37.125 C 8.756 36.068,8.594 35.898,8.885 36.669 M58.407 37.903 C 58.229 38.033,58.128 38.184,58.182 38.237 C 58.236 38.291,58.416 38.185,58.582 38.001 C 58.936 37.610,58.864 37.569,58.407 37.903 M67.502 38.117 C 67.503 38.190,67.766 38.419,68.085 38.627 C 68.835 39.112,68.833 39.000,68.083 38.428 C 67.762 38.183,67.501 38.043,67.502 38.117 M10.000 38.461 C 10.000 38.573,10.525 39.190,11.167 39.833 C 11.808 40.476,12.333 40.939,12.333 40.861 C 12.333 40.784,12.046 40.454,11.694 40.129 C 11.343 39.804,10.818 39.250,10.528 38.898 C 10.238 38.546,10.000 38.349,10.000 38.461 M57.528 38.599 C 57.320 38.745,57.173 38.935,57.202 39.022 C 57.271 39.230,70.833 52.833,70.971 52.833 C 71.030 52.833,67.967 49.717,64.164 45.909 L 57.250 38.985 57.667 38.663 C 58.169 38.274,58.062 38.225,57.528 38.599 M69.008 39.259 C 69.126 39.402,69.379 39.597,69.570 39.693 C 69.837 39.828,69.813 39.768,69.466 39.434 C 68.974 38.961,68.661 38.842,69.008 39.259 M12.833 41.347 C 13.314 41.738,14.677 42.378,14.790 42.266 C 14.831 42.224,14.558 42.033,14.183 41.842 C 13.807 41.650,13.500 41.532,13.500 41.580 C 13.500 41.628,13.350 41.517,13.167 41.333 C 12.983 41.150,12.740 41.002,12.625 41.004 C 12.510 41.006,12.604 41.160,12.833 41.347 M71.680 42.286 C 71.882 42.849,72.298 43.425,72.416 43.306 C 72.463 43.259,72.352 43.047,72.168 42.835 C 71.984 42.622,71.833 42.352,71.833 42.234 C 71.833 42.116,71.761 41.975,71.673 41.921 C 71.574 41.860,71.577 41.999,71.680 42.286 M72.460 43.922 C 72.503 44.148,72.598 44.333,72.670 44.333 C 72.825 44.333,72.683 43.697,72.504 43.586 C 72.437 43.544,72.417 43.695,72.460 43.922 M11.902 45.262 C 12.261 45.394,12.590 45.466,12.634 45.422 C 12.740 45.315,11.884 44.997,11.531 45.012 C 11.376 45.018,11.543 45.131,11.902 45.262 M12.939 45.535 C 13.056 45.725,13.667 45.697,13.667 45.502 C 13.667 45.411,13.485 45.352,13.262 45.371 C 13.039 45.389,12.894 45.463,12.939 45.535 M13.833 45.662 C 13.833 45.735,14.027 45.831,14.263 45.877 C 14.566 45.935,14.640 45.907,14.514 45.781 C 14.296 45.562,13.833 45.481,13.833 45.662 M16.220 46.285 C 16.362 46.515,17.000 46.678,17.000 46.484 C 17.000 46.401,16.931 46.333,16.847 46.333 C 16.763 46.333,16.563 46.283,16.403 46.222 C 16.220 46.151,16.152 46.175,16.220 46.285 M19.583 47.333 C 20.042 47.530,20.205 47.530,20.083 47.333 C 20.027 47.242,19.816 47.172,19.615 47.178 C 19.263 47.190,19.262 47.195,19.583 47.333 M21.333 47.654 C 21.333 47.722,21.596 47.858,21.917 47.956 C 22.238 48.055,22.500 48.080,22.500 48.012 C 22.500 47.945,22.238 47.809,21.917 47.710 C 21.596 47.612,21.333 47.587,21.333 47.654 M23.833 48.396 C 24.154 48.520,24.448 48.595,24.486 48.561 C 24.608 48.454,24.431 48.375,23.833 48.271 L 23.250 48.170 23.833 48.396 M7.833 48.409 C 7.833 48.674,8.360 49.582,9.108 50.608 C 9.990 51.816,10.333 52.163,10.333 51.843 C 10.333 51.746,10.265 51.667,10.181 51.667 C 9.964 51.667,8.930 50.220,8.417 49.198 C 8.035 48.437,7.833 48.165,7.833 48.409 M61.583 48.592 C 61.767 48.728,62.048 48.950,62.208 49.085 C 62.662 49.467,62.551 49.169,62.075 48.727 C 61.841 48.511,61.560 48.336,61.450 48.339 C 61.340 48.342,61.400 48.455,61.583 48.592 M63.242 49.969 C 63.605 50.353,63.927 50.667,63.959 50.667 C 64.121 50.667,63.682 50.153,63.167 49.740 C 62.590 49.277,62.590 49.279,63.242 49.969 M25.967 50.792 C 25.636 51.350,24.650 52.403,23.750 53.159 C 23.261 53.571,23.216 53.639,23.583 53.418 C 24.458 52.889,26.774 50.333,26.378 50.333 C 26.301 50.333,26.116 50.540,25.967 50.792 M72.190 51.606 C 71.990 52.053,71.994 52.066,72.257 51.808 C 72.412 51.657,72.508 51.442,72.471 51.331 C 72.434 51.220,72.308 51.344,72.190 51.606 M10.500 52.231 C 10.500 52.266,10.706 52.428,10.958 52.590 L 11.417 52.885 11.099 52.526 C 10.818 52.208,10.500 52.051,10.500 52.231 M11.660 53.055 C 11.916 53.386,13.690 54.336,14.037 54.329 C 14.154 54.327,13.762 54.092,13.167 53.807 C 12.571 53.522,11.935 53.167,11.753 53.019 C 11.440 52.765,11.435 52.767,11.660 53.055 M22.000 54.150 C 21.863 54.227,21.471 54.341,21.131 54.402 C 20.790 54.463,20.462 54.593,20.402 54.691 C 20.330 54.806,20.411 54.831,20.632 54.761 C 20.820 54.701,21.124 54.624,21.307 54.588 C 21.700 54.513,22.660 54.014,22.417 54.012 C 22.325 54.011,22.137 54.073,22.000 54.150 M15.250 54.621 C 15.496 54.871,16.333 55.038,16.333 54.837 C 16.333 54.743,16.189 54.667,16.014 54.667 C 15.838 54.667,15.557 54.618,15.389 54.559 C 15.183 54.486,15.138 54.506,15.250 54.621 M16.960 54.951 C 17.168 54.991,17.468 54.990,17.627 54.948 C 17.786 54.906,17.617 54.874,17.250 54.875 C 16.883 54.877,16.753 54.911,16.960 54.951 M57.649 56.087 C 57.934 56.981,58.005 57.092,57.915 56.505 C 57.867 56.187,57.751 55.851,57.659 55.759 C 57.546 55.646,57.543 55.754,57.649 56.087 M66.388 57.750 C 66.389 58.392,66.419 58.634,66.455 58.288 C 66.491 57.942,66.490 57.417,66.454 57.121 C 66.417 56.825,66.387 57.108,66.388 57.750 M58.012 57.782 C 58.049 58.214,58.310 58.581,58.322 58.218 C 58.328 58.017,58.258 57.807,58.167 57.750 C 58.075 57.693,58.005 57.708,58.012 57.782 M64.839 63.156 C 64.628 63.550,64.618 63.716,64.813 63.596 C 64.960 63.505,65.190 62.833,65.074 62.833 C 65.040 62.833,64.934 62.978,64.839 63.156 M64.148 64.204 C 63.957 64.562,63.964 64.569,64.264 64.339 C 64.440 64.204,64.607 64.081,64.636 64.064 C 64.665 64.047,64.613 63.986,64.519 63.929 C 64.426 63.871,64.259 63.995,64.148 64.204 M63.042 65.183 C 62.652 65.459,62.333 65.722,62.333 65.767 C 62.333 65.812,62.671 65.617,63.083 65.333 C 63.496 65.050,63.833 64.783,63.833 64.742 C 63.833 64.627,63.802 64.645,63.042 65.183 M60.286 66.003 C 60.415 66.496,60.632 66.560,60.540 66.078 C 60.497 65.852,60.402 65.667,60.330 65.667 C 60.257 65.667,60.237 65.818,60.286 66.003 M61.708 66.060 C 61.502 66.162,61.333 66.306,61.333 66.379 C 61.333 66.539,61.940 66.233,62.084 65.999 C 62.140 65.908,62.163 65.843,62.135 65.854 C 62.107 65.865,61.915 65.958,61.708 66.060 " stroke="none" fill="#fcccbc" fill-rule="evenodd"></path></g></svg> 